<?xml version="1.0" standalone="no"?><!DOCTYPE svg PUBLIC "-//W3C//DTD SVG 1.1//EN" "http://www.w3.org/Graphics/SVG/1.1/DTD/svg11.dtd"><svg t="1635845091787" class="icon" viewBox="0 0 1024 1024" version="1.1" xmlns="http://www.w3.org/2000/svg" p-id="14275" xmlns:xlink="http://www.w3.org/1999/xlink" width="200" height="200"><defs><style type="text/css"></style></defs><path d="M481.3824 87.278933a34.133333 34.133333 0 0 1 61.2352 0l111.9232 226.781867a34.133333 34.133333 0 0 0 25.7024 18.670933l250.2656 36.386134a34.133333 34.133333 0 0 1 18.909867 58.231466l-181.111467 176.503467a34.133333 34.133333 0 0 0-9.796267 30.208l42.734934 249.275733a34.133333 34.133333 0 0 1-49.493334 35.976534l-223.880533-117.691734a34.133333 34.133333 0 0 0-31.744 0l-223.8464 117.691734a34.133333 34.133333 0 0 1-49.527467-35.976534l42.734934-249.275733a34.133333 34.133333 0 0 0-9.796267-30.208L74.581333 427.349333a34.133333 34.133333 0 0 1 18.909867-58.231466l250.2656-36.386134a34.133333 34.133333 0 0 0 25.7024-18.670933l111.957333-226.781867z" fill="#FF7744" p-id="14276"></path></svg>