<svg viewBox="0 0 280 280" xmlns:xlink="http://www.w3.org/1999/xlink" xmlns="http://www.w3.org/2000/svg" id="Layer_1"><defs><style>.cls-1,.cls-2{fill:#fff;}.cls-1,.cls-21{stroke:#ef9100;stroke-miterlimit:10;stroke-width:4px;}.cls-3{clip-path:url(#clip-path);}.cls-4{fill:#f7d580;}.cls-5{fill:#fcffa3;}.cls-6{fill:#ff9a5b;}.cls-7{fill:#ffd769;}.cls-8{fill:#ffe1a5;}.cls-9{fill:#f2dc63;}.cls-10{fill:#ff543d;}.cls-11{fill:#d97d71;}.cls-12{fill:#ffffc2;}.cls-13{fill:#333e40;}.cls-14{fill:#ffff69;}.cls-15{fill:#ed7755;}.cls-16{fill:#f1ff94;}.cls-17{fill:#d45000;}.cls-18{fill:#ffff26;}.cls-19,.cls-21{fill:none;}.cls-20{fill:#d49100;}</style><clipPath id="clip-path"><circle r="130" cy="140" cx="140" class="cls-1"></circle></clipPath></defs><circle r="130" cy="140" cx="140" class="cls-2"></circle><g class="cls-3"><g id="錦鯉"><path d="M229.93,205.36a7,7,0,0,1-2.44,4.72,58.61,58.61,0,0,1-13,2.31h0c2-1,4.27-1.47,5.75-3.3a6.35,6.35,0,0,0,.64-1A51,51,0,0,0,229.93,205.36Z" class="cls-4"></path><path d="M221.85,205.63a10.44,10.44,0,0,1,1.88-4c1.08-1.21,2.68-1.82,4.12-2.63l.64-.38a14.66,14.66,0,0,1,1.47,6.26c0,.15,0,.3,0,.44a51,51,0,0,1-9.05,2.74A14.74,14.74,0,0,0,221.85,205.63Z" class="cls-4"></path><path d="M227.49,210.08a4.62,4.62,0,0,1-2.22,1,3,3,0,0,0-1.17.26c-.77.44-.78,1.52-.85,2.4a6.85,6.85,0,0,1-.41,1.79A38.22,38.22,0,0,1,210.21,217a10.72,10.72,0,0,1,2.54-3.48,8.48,8.48,0,0,1,1.74-1.09h0A58.61,58.61,0,0,0,227.49,210.08Z" class="cls-4"></path><path d="M172.34,193.66c.75-1.25,1.47-2.5,2.17-3.78A22.35,22.35,0,0,0,187.6,203c6.81,2.61,14.55,2.15,21.44-.26a40.86,40.86,0,0,0,24.68-24.63c3.82,6.81,1.32,16.39-5.23,20.59l-.64.38c-1.44.81-3,1.42-4.12,2.63a10.44,10.44,0,0,0-1.88,4,14.74,14.74,0,0,1-1,2.47,6.35,6.35,0,0,1-.64,1c-1.48,1.83-3.76,2.33-5.75,3.3a8.48,8.48,0,0,0-1.74,1.09,10.72,10.72,0,0,0-2.54,3.48c-.49.91-1,1.86-1.53,2.73a8.83,8.83,0,0,1-.64.87,19.74,19.74,0,0,1-2.52,2.48c-3.62,3-8.58,5-13,4.55-6-.62-11-6.25-14.95-10.38-3.73-3.87-7.5-8-9.21-13.08a19.06,19.06,0,0,1-.76-3.26c1.11-1.56,2.17-3.16,3.2-4.77Q171.61,194.89,172.34,193.66Z" class="cls-5"></path><path d="M222.84,215.52a7.81,7.81,0,0,1-7,5.08c-1.8,0-3.54-.6-5.33-.66a8.34,8.34,0,0,0-1.32.06l-.54-.32c.58-.87,1-1.82,1.53-2.73A38.22,38.22,0,0,0,222.84,215.52Z" class="cls-4"></path><path d="M171.59,254.89a25,25,0,0,1-4.2,10,60.6,60.6,0,0,0-2.71-16.57c-2.86-9.34-9.56-17.41-13.52-26.3a68,68,0,0,1-4-42.56h0c.28-1.2.6-2.39.94-3.58a71.7,71.7,0,0,0-.59,8.28A72.78,72.78,0,0,0,159.23,225c5.13,7.81,10.48,16.69,12.77,26.06A25.42,25.42,0,0,1,171.59,254.89Z" class="cls-5"></path><path d="M139.28,200.33c0-.75,0-1.52,0-2.27,0-12.08,2.64-25.53,12.13-32.79a2,2,0,0,1,.34.37,9.56,9.56,0,0,1,.66,1h0a32.11,32.11,0,0,0-3.49,4.59h0c-.41.64-.8,1.29-1.16,2,0,0,0,0,0,0-5.89,10.59-6.73,24-4.24,36.13,3.15,15.32,10.83,29.25,17.43,43.43a64.3,64.3,0,0,1,4.91,13.37c.18.84.33,1.68.44,2.53h0a25.18,25.18,0,0,1-7.21,13.68,24.37,24.37,0,0,1-7.14,4.74h0a21.32,21.32,0,0,1-2.66,1,38.65,38.65,0,0,0,8-14.85,38.06,38.06,0,0,0,1.25-14.66,33.6,33.6,0,0,0-2.18-8.79l-.12-.31a87.29,87.29,0,0,0-6.67-12c-.49-.79-1-1.59-1.45-2.4-.7-1.18-1.38-2.39-2-3.62-.11-.23-.23-.45-.33-.67-.77-1.56-1.45-3.15-2.06-4.77-.27-.71-.53-1.43-.77-2.15q-.52-1.58-1-3.18h0a71.23,71.23,0,0,1-1.84-9.08A91.49,91.49,0,0,1,139.28,200.33Z" class="cls-5"></path><path d="M167.39,264.93c-.25.34-.51.68-.78,1l-.78.17a64.3,64.3,0,0,0-4.91-13.37c-6.6-14.18-14.28-28.11-17.43-43.43-2.49-12.1-1.65-25.54,4.24-36.13,0,0,0,0,0,0,.36-.67.75-1.32,1.16-2-.31,1.56-.57,3.13-.78,4.7h0c-.34,1.19-.66,2.38-.94,3.58h0a68,68,0,0,0,4,42.56c4,8.89,10.66,17,13.52,26.3A60.6,60.6,0,0,1,167.39,264.93Z" class="cls-5"></path><path d="M171.44,234.3c-.51,5.53.77,11.11.56,16.72-2.29-9.37-7.64-18.25-12.77-26.06a72.78,72.78,0,0,1-11.72-40.77c1.32,9.35,6.19,17.88,11.26,26.46,4.45,7.55,11.16,14.77,12.67,23.64C171.45,234.29,171.44,234.3,171.44,234.3Z" class="cls-5"></path><path d="M148.11,175.9c.21-1.57.47-3.14.78-4.7h0a32.11,32.11,0,0,1,3.49-4.59,7.57,7.57,0,0,0,1,1.42c-4.35,8.39-4.32,19.06.72,27.05a30.38,30.38,0,0,0,2.87,3.81c.29.34.59.68.9,1l-.06.06q6.43,10.33,12.86,20.69a35.19,35.19,0,0,1,3.35,6.29,11.44,11.44,0,0,1-.8,2.35,13.89,13.89,0,0,0-1.68,4c-.05.34-.09.69-.12,1-1.51-8.87-8.22-16.09-12.67-23.64-5.07-8.58-9.94-17.11-11.26-26.46a71.7,71.7,0,0,1,.59-8.28Z" class="cls-5"></path><path d="M174,226.94a35.19,35.19,0,0,0-3.35-6.29Q164.26,210.3,157.83,200l.06-.06c1.91,2.06,4,4,6.06,5.92,1.51,1.43,3,2.88,4.36,4.44C172.33,214.83,175.37,221.2,174,226.94Z" class="cls-5"></path><path d="M172.84,87.81c7.22,5.52,5.27,14.47,10.65,20.81,6,7,6,16.91,5.82,25.82a119,119,0,0,1-14.8,55.44c-.7,1.28-1.42,2.53-2.17,3.78q-.74,1.23-1.5,2.43c-1,1.61-2.09,3.21-3.2,4.77s-2.41,3.34-3.69,5c-2-1.95-4.15-3.86-6.06-5.92-.31-.33-.61-.67-.9-1a30.38,30.38,0,0,1-2.87-3.81c-5-8-5.07-18.66-.72-27.05a2.23,2.23,0,0,0,1.06.64c1.3.33,2.54-.79,3.2-1.95a8.8,8.8,0,0,0,1.06-5.39c-4.24-.12-8.48-.6-12.7-.64a34.79,34.79,0,0,1-12.09-2.37,32.1,32.1,0,0,1-5.81-3c-.67-.44-1.32-.9-1.93-1.39a35.4,35.4,0,0,1-5.33-5.28,31.08,31.08,0,0,1-6.57-13.08h0a84.24,84.24,0,0,1-1.34-8.76c-.53-5.83.34-7.59.52-11.18a115,115,0,0,1,17.28-12.37,110,110,0,0,1,16.68-8.07q.84-.31,1.74-.6a8.42,8.42,0,0,1,4.85,6.1c.23,0,.48,0,.74,0a5.05,5.05,0,0,0,2.41-.31,9,9,0,0,0-2.44-5.94,14.79,14.79,0,0,0-1.28-1.24,15.67,15.67,0,0,0,2.27-1A21.93,21.93,0,0,0,159,89.79a30.76,30.76,0,0,1,2.59-2c.22-.15.44-.29.65-.41a4.54,4.54,0,0,1,4.51-.28c.43.26.91.62,1.37.45s.53-.52.74-.84C171,83.39,172.24,85.33,172.84,87.81ZM142,127.27c7.3-3,4.39-14.88-3.27-13.68-5,.78-8.28,7.81-4.94,11.7A7.42,7.42,0,0,0,142,127.27Z" class="cls-6"></path><path d="M87.13,227.36h0l-.42.14a2.5,2.5,0,0,1-2.22-.77,3.67,3.67,0,0,1-.83-1.54,7.16,7.16,0,0,1-.29-1.6,17.74,17.74,0,0,1,0-3.57A5.1,5.1,0,0,0,86.23,217a3.34,3.34,0,0,0,.92.67,2.32,2.32,0,0,0,2.93-.6l4.77-1.8-2.38-5a5.68,5.68,0,0,0,2.25,0c2.79-.56,4.77-3,6.5-5.25a11.54,11.54,0,0,0,.92-1.39,6.11,6.11,0,0,0,3.38,1.06,6.42,6.42,0,0,0,6-5.09,5.92,5.92,0,0,0,4.94-1.3,7.61,7.61,0,0,0,1.91-2.91c1.92,1.83,5.26,2.2,7.11.3l3.54-3-3.31-7.41-5.8.82-2.41-7.57-7.16,1.86-3.09-7.51-1-.33a3.33,3.33,0,0,0,2.66-1.55l3.41-2.14-2.68-8.07-7.46.94a10,10,0,0,1-6.2-3.79l.8-.92a4,4,0,0,0,1.8,1.06,5.49,5.49,0,0,0,5.68-2.46,7.71,7.71,0,0,0,1.2-3.51,5.31,5.31,0,0,0,1-1,10.3,10.3,0,0,0,1.94-6l-6.28-.7L99,138l-3.21.73-.19-.11c.36-.65.72-1.3,1.09-1.94q1.41-2.49,2.92-4.93v0a4.56,4.56,0,0,0,2.5,2.14c-.5,2.21-.39,4.87,1.55,5.9,1.63.85,3.75-.06,4.83-1.55a6.66,6.66,0,0,0,.83-1.5,5.09,5.09,0,0,0,3.42-.11,5.28,5.28,0,0,0,1.55-1,31.08,31.08,0,0,0,6.57,13.08,5,5,0,0,0-3.94,1.56,5.46,5.46,0,0,0-.36,6.38,6,6,0,0,0,.4.58,6.62,6.62,0,0,0-2.46,3.32,6.32,6.32,0,0,0,1.76,6.53,5.84,5.84,0,0,0,6.76.72,4.58,4.58,0,0,0,2-3.46,8.16,8.16,0,0,0,3.62.92c1.92.11,4.12-.22,5.1-1.79a5.4,5.4,0,0,0,.52-3.22,7.38,7.38,0,0,0-.34-1.9A34.79,34.79,0,0,0,146,160.69c4.22,0,8.46.52,12.7.64a8.8,8.8,0,0,1-1.06,5.39c-.66,1.16-1.9,2.28-3.2,1.95a2.23,2.23,0,0,1-1.06-.64,7.57,7.57,0,0,1-1-1.42h0a9.56,9.56,0,0,0-.66-1,2,2,0,0,0-.34-.37c-9.49,7.26-12.1,20.71-12.13,32.79,0,.75,0,1.52,0,2.27-2.12.5-3.38,2.72-4.17,4.78a12.13,12.13,0,0,0-.78,2.83l-.13,0L133,203.3l-5.26,1.86a4.81,4.81,0,0,0-1,5.1,8.71,8.71,0,0,0-3.18,8.26,4.44,4.44,0,0,0,.87,2c1.3,1.56,4,1.28,5.38-.21A5,5,0,0,0,131,218.2a4.86,4.86,0,0,0,4-1.07,8.63,8.63,0,0,0,2.48-4.25,3.46,3.46,0,0,0,2.65-1.33,71.23,71.23,0,0,0,1.84,9.08h0q.43,1.6,1,3.18c.24.72.5,1.44.77,2.15-1.92,1.52-3.92,3-6,4.54-1,.7-1.95,1.41-2.95,2.11h0c-3.25,2.28-6.65,4.5-10.13,6.63-2.32,1.41-4.68,2.77-7.06,4.07-2.71,1.48-5.46,2.88-8.22,4.17-.35-.37-.72-.75-1.09-1.11a38.78,38.78,0,0,0-9.65-7.08,3.09,3.09,0,0,0-.3.75c-.19.67-.17,1.37-.3,2.05a2.14,2.14,0,0,1-.09.34,2.8,2.8,0,0,1-.32.73,6.44,6.44,0,0,1-1.12,1.4l.11.09a16.24,16.24,0,0,1,4.5,6.36,90.14,90.14,0,0,1-11.94,3.65,155.4,155.4,0,0,1-62.84,1.06,19,19,0,0,0,8.27-5.66l1.55-4.91-11.42-4.43c7.43,1.07,16-1.92,22.6-6.24a4.91,4.91,0,0,0,4.16,5.43,5.41,5.41,0,0,0,5.22-3.09h0l.1-.24c2.56,1.06,6.7.43,8.5-1.22l.42-.16a4.37,4.37,0,0,0,5.93,3.08,6.86,6.86,0,0,0,1.74-.85A5.06,5.06,0,0,0,75.67,241c2.36,1.35,5.53-.08,7-2.35a11.69,11.69,0,0,0,1.6-4.77l.31-.09a9.2,9.2,0,0,0,2.91-1.48c.83,1.47,2.68,2.67,4.15,1.86,3.68,1.77,4.54-3.55,4.54-3.55l-3.12-5.21Z" class="cls-6"></path><path d="M140.13,211.55a3.46,3.46,0,0,1-2.65,1.33,2.43,2.43,0,0,1-1.18-.27,3.36,3.36,0,0,1-1.41-1.36,4.7,4.7,0,0,1-.61-2.08,5.63,5.63,0,0,1,.05-1.23,12.13,12.13,0,0,1,.78-2.83c.79-2.06,2-4.28,4.17-4.78A91.49,91.49,0,0,0,140.13,211.55Z" class="cls-7"></path><path d="M119.3,265.23c1.19,6,.29,12.34-3.28,18.91a25.06,25.06,0,0,1-8.16,4.86,23.89,23.89,0,0,0,3.9-6.24,37.6,37.6,0,0,0,2.73-14.59c0-4.06-.36-8.25-2.21-11.86a32.11,32.11,0,0,0-5.88-7.38c-2.53-2.6-5.17-5.27-8.39-6.84.13-.68.11-1.38.3-2.05a3.09,3.09,0,0,1,.3-.75,38.78,38.78,0,0,1,9.65,7.08c.37.36.74.74,1.09,1.11,4.91,5.23,8.35,10.85,9.75,16.81C119.18,264.61,119.25,264.92,119.3,265.23Z" class="cls-5"></path><path d="M137.48,212.88a8.63,8.63,0,0,1-2.48,4.25,4.86,4.86,0,0,1-4,1.07,25.85,25.85,0,0,0,.67-5.19,5.49,5.49,0,0,0,.61-.12,5.69,5.69,0,0,0,2.57-1.64,3.36,3.36,0,0,0,1.41,1.36A2.43,2.43,0,0,0,137.48,212.88Z" class="cls-7"></path><path d="M148.11,175.9h0Z" class="cls-5"></path><path d="M111.29,291.37a52.73,52.73,0,0,1-6.59,7,58.65,58.65,0,0,1-25.37,7.07,49.06,49.06,0,0,1-13-.91c-5.31-1.24-10.07-3.9-12.24-9.32-.1-.22-.18-.45-.26-.68-.42-1.19-.7-2.13-1-2.94a10.62,10.62,0,0,0-3.2-4.6c-.24-.23-.46-.46-.67-.69-2.48-2.75-2.1-5.29-4.18-8.39a12.53,12.53,0,0,1-1.34-2.66,17.75,17.75,0,0,1-.61-8.39,67.38,67.38,0,0,1,5,4.89c4.38,4.73,8.37,9.9,13.12,13.91a31.23,31.23,0,0,0,6.63,4.41h0a25.35,25.35,0,0,0,9.2,2.5l1.35.11h0a89.53,89.53,0,0,0,12.16-.12h0a75.81,75.81,0,0,0,10-1.4h0l1.27-.28a47.75,47.75,0,0,0,6.24-1.91,25.06,25.06,0,0,0,8.16-4.86,53.16,53.16,0,0,1-3.11,5h0c-.51.74-1.05,1.47-1.61,2.18Z" class="cls-4"></path><path d="M134.28,209.17a4.7,4.7,0,0,0,.61,2.08,5.69,5.69,0,0,1-2.57,1.64,5.49,5.49,0,0,1-.61.12,4.82,4.82,0,0,1-2.9-.58,4.57,4.57,0,0,1-1.73-1.65,5,5,0,0,1-.26-.52,4.81,4.81,0,0,1,1-5.1L133,203.3l1.16,4.62.13,0A5.63,5.63,0,0,0,134.28,209.17Z" class="cls-8"></path><path d="M114.49,268.17a37.6,37.6,0,0,1-2.73,14.59,23.89,23.89,0,0,1-3.9,6.24,47.75,47.75,0,0,1-6.24,1.91l-1.27.28a30.65,30.65,0,0,0-2.75-48,2.8,2.8,0,0,0,.32-.73,2.14,2.14,0,0,0,.09-.34c3.22,1.57,5.86,4.24,8.39,6.84a32.11,32.11,0,0,1,5.88,7.38C114.13,259.92,114.53,264.11,114.49,268.17Z" class="cls-5"></path><path d="M131,218.2a5,5,0,0,1-1.15,2.15c-1.38,1.49-4.08,1.77-5.38.21a4.44,4.44,0,0,1-.87-2,8.71,8.71,0,0,1,3.18-8.26,5,5,0,0,0,.26.52,4.57,4.57,0,0,0,1.73,1.65,4.82,4.82,0,0,0,2.9.58A25.85,25.85,0,0,1,131,218.2Z" class="cls-9"></path><path d="M110.6,266.32a31.35,31.35,0,0,1-10.25,24.87h0a75.81,75.81,0,0,1-10,1.4c6.76-3.83,11.52-11.18,14.15-18.71a33.22,33.22,0,0,0,1.87-7.86,24.08,24.08,0,0,0-9.72-21.4l0,0-.11-.09a6.44,6.44,0,0,0,1.12-1.4A31.3,31.3,0,0,1,110.6,266.32Z" class="cls-5"></path><path d="M106.34,266a33.22,33.22,0,0,1-1.87,7.86c-2.63,7.53-7.39,14.88-14.15,18.71h0a89.53,89.53,0,0,1-12.16.12,44.35,44.35,0,0,0,12.78-8,36.94,36.94,0,0,0,8-12.12c2.37-5.34,4.09-11.19,3.37-17a18.13,18.13,0,0,0-1.21-4.61,16.24,16.24,0,0,0-4.5-6.36l0,0A24.08,24.08,0,0,1,106.34,266Z" class="cls-5"></path><path d="M125.68,185.28l3.31,7.41-3.54,3c-1.85,1.9-5.19,1.53-7.11-.3a4.64,4.64,0,0,1-.78-.93,6.7,6.7,0,0,1-.76-4.94l3.08-3.44Z" class="cls-8"></path><path d="M157.18,100.45a5.05,5.05,0,0,1-2.41.31c-.26,0-.51,0-.74,0a8.42,8.42,0,0,0-4.85-6.1c-3.58-1.52-7.65-1-11.54-.81a70.81,70.81,0,0,1-17.62-2c-27.3-6.35-28.71-38.22-20-60.33a17.25,17.25,0,0,1,6.4-7.53c-9.89,15.16-12,45.45,2.64,58.84,3.58,3.28,8.33,4.94,13.06,6a65.62,65.62,0,0,0,15.49,1.58c6-.09,11.31-1,15.86,2.86a14.79,14.79,0,0,1,1.28,1.24A9,9,0,0,1,157.18,100.45Z" class="cls-10"></path><path d="M161.63,87.76a30.76,30.76,0,0,0-2.59,2,9.61,9.61,0,0,0-2.47-5.45c-2.2-2.47-5.2-4.11-7.56-6.44-4.23-4.19-5.2-10.5-4.82-16.45.48-8,4.54-14,10-19.71,1-1,2.08-3.12,3.46-2.87-4.54,6-8.82,12.54-10.25,19.94a23.37,23.37,0,0,0,1.09,13c1.89,4.72,5.43,6.86,9,10.14A15.89,15.89,0,0,1,161.63,87.76Z" class="cls-11"></path><path d="M134.27,160.22a5.4,5.4,0,0,1-.52,3.22c-1,1.57-3.18,1.9-5.1,1.79a8.16,8.16,0,0,1-3.62-.92,4.22,4.22,0,0,1-1-.73,4.56,4.56,0,0,1-1.14-3.62c2.63-.11,4.47-2.18,5.18-4.61a32.1,32.1,0,0,0,5.81,3A7.38,7.38,0,0,1,134.27,160.22Z" class="cls-7"></path><path d="M138.76,113.59c7.66-1.2,10.57,10.69,3.27,13.68a7.42,7.42,0,0,1-8.21-2C130.48,121.4,133.73,114.37,138.76,113.59Zm4.78,8.25a4.25,4.25,0,1,0-8.14-2.42,4.17,4.17,0,0,0,.47,3.09,4.06,4.06,0,0,0,2.06,1.66l-.05.14A4.42,4.42,0,0,0,143.54,121.84Z" class="cls-12"></path><path d="M137.93,124.17a4.06,4.06,0,0,1-2.06-1.66,4.17,4.17,0,0,1-.47-3.09,4.25,4.25,0,1,1,2.48,4.89Z" class="cls-13"></path><path d="M118.34,195.41a7.61,7.61,0,0,1-1.91,2.91,5.92,5.92,0,0,1-4.94,1.3,5.68,5.68,0,0,1-2.71-1.28,5.86,5.86,0,0,1-1.89-4.41,6,6,0,0,0,4-4,5.51,5.51,0,0,0,5.92-.43,6.7,6.7,0,0,0,.76,4.94A4.64,4.64,0,0,0,118.34,195.41Z" class="cls-7"></path><path d="M117.47,178.53l2.41,7.57-3.08,3.44a5.51,5.51,0,0,1-5.92.43,4.59,4.59,0,0,1-1.17-.89,6.34,6.34,0,0,1-.09-7.91l.69-.78Z" class="cls-9"></path><path d="M128.12,155.35c-.71,2.43-2.55,4.5-5.18,4.61h-.42A7.58,7.58,0,0,1,117,157.2a6,6,0,0,1-.4-.58,5.46,5.46,0,0,1,.36-6.38,5,5,0,0,1,3.94-1.56,35.4,35.4,0,0,0,5.33,5.28C126.8,154.45,127.45,154.91,128.12,155.35Z" class="cls-14"></path><path d="M125,164.31a4.58,4.58,0,0,1-2,3.46,5.84,5.84,0,0,1-6.76-.72,6.32,6.32,0,0,1-1.76-6.53A6.62,6.62,0,0,1,117,157.2a7.58,7.58,0,0,0,5.56,2.76h.42a4.56,4.56,0,0,0,1.14,3.62A4.22,4.22,0,0,0,125,164.31Z" class="cls-9"></path><path d="M111.49,199.62a6.42,6.42,0,0,1-6,5.09,6.11,6.11,0,0,1-3.38-1.06,7.23,7.23,0,0,1-2.11-2.19,6.45,6.45,0,0,1-1-3.55,7,7,0,0,1,2.31-4.87,6.91,6.91,0,0,0,5.55.89,5.86,5.86,0,0,0,1.89,4.41A5.68,5.68,0,0,0,111.49,199.62Z" class="cls-9"></path><path d="M110.88,190a6,6,0,0,1-4,4,6.91,6.91,0,0,1-5.55-.89,6.27,6.27,0,0,1-2.49-2.9,3.42,3.42,0,0,1-.13-.34,6.79,6.79,0,0,1,.3-5,6.1,6.1,0,0,0,1.18-1.57,6.33,6.33,0,0,0,6,.61,10.25,10.25,0,0,0,3.46-2.72,6.34,6.34,0,0,0,.09,7.91A4.59,4.59,0,0,0,110.88,190Z" class="cls-14"></path><path d="M96.19,230.59s-.86,5.32-4.54,3.55c-1.47.81-3.32-.39-4.15-1.86a7.14,7.14,0,0,1-.8-4.77,2.07,2.07,0,0,0,.42-.14h0l5.94-2Z" class="cls-9"></path><path d="M107.22,172.88l3.09,7.51a5.74,5.74,0,0,0-.69.78,10.25,10.25,0,0,1-3.46,2.72,6.33,6.33,0,0,1-6-.61.65.65,0,0,1-.15-.1,6.1,6.1,0,0,1-.61-.51,9.84,9.84,0,0,1-2.91-7.5,6.41,6.41,0,0,1,.82-2.78,4.53,4.53,0,0,0,.84.66l.15.08c1.77.89,3.8.1,5.4-1.21l.44.26a4,4,0,0,0,2,.37Z" class="cls-14"></path><path d="M92.47,210.26a6.32,6.32,0,0,1-3.86-2.59,5.39,5.39,0,0,1-.9-3.64,6.21,6.21,0,0,1,3-4.68,6.24,6.24,0,0,0,.77.93,7.7,7.7,0,0,0,8.59,1.18,7.23,7.23,0,0,0,2.11,2.19,11.54,11.54,0,0,1-.92,1.39c-1.73,2.26-3.71,4.69-6.5,5.25A5.68,5.68,0,0,1,92.47,210.26Z" class="cls-14"></path><path d="M109.6,160.79l2.68,8.07L108.87,171a3.33,3.33,0,0,1-2.66,1.55,4,4,0,0,1-2-.37l-.44-.26a6.21,6.21,0,0,1-2.49-3.95,12.46,12.46,0,0,1-.21-2.92h0a6.61,6.61,0,0,0,1.09-3.31Z" class="cls-7"></path><path d="M92.47,210.26l2.38,5-4.77,1.8a2.32,2.32,0,0,1-2.93.6,3.34,3.34,0,0,1-.92-.67,6.15,6.15,0,0,1-1.17-1.76,11.31,11.31,0,0,1-1-6.12l4.5-1.43A6.32,6.32,0,0,0,92.47,210.26Z" class="cls-12"></path><path d="M99,197.91a6.45,6.45,0,0,0,1,3.55,7.7,7.7,0,0,1-8.59-1.18,6.24,6.24,0,0,1-.77-.93,6.77,6.77,0,0,1-.56-6.62,6.07,6.07,0,0,0,3.79.26,8.47,8.47,0,0,0,4.82-3.19,3.42,3.42,0,0,0,.13.34,6.27,6.27,0,0,0,2.49,2.9A7,7,0,0,0,99,197.91Z" class="cls-9"></path><path d="M86.7,227.51a7.14,7.14,0,0,0,.8,4.77,9.2,9.2,0,0,1-2.91,1.48l-.31.09c-1.54.44-3.3.58-4.55-.4a3.83,3.83,0,0,1-1.15-1.72,7.28,7.28,0,0,1-.33-1.9,10.2,10.2,0,0,1,.22-2.46,4.44,4.44,0,0,0,1.45.09,5.84,5.84,0,0,0,3.73-2.26,3.67,3.67,0,0,0,.83,1.54A2.5,2.5,0,0,0,86.7,227.51Z" class="cls-8"></path><path d="M114.3,135.6h0a5.28,5.28,0,0,1-1.55,1,5.09,5.09,0,0,1-3.42.11,4.43,4.43,0,0,1-2.18-1.46,5.46,5.46,0,0,1-1.08-2.82,10.39,10.39,0,0,1,0-2.23,15.89,15.89,0,0,1,.85-3.73,1.33,1.33,0,0,0,.14.19,4,4,0,0,0,4.15,1.09,5.9,5.9,0,0,0,1.76-.91A84.24,84.24,0,0,0,114.3,135.6Z" class="cls-12"></path><path d="M84.28,233.85a11.69,11.69,0,0,1-1.6,4.77c-1.48,2.27-4.65,3.7-7,2.35a5.06,5.06,0,0,1-2.29-3.55,6.83,6.83,0,0,1-.11-1.35,11.06,11.06,0,0,1,.5-3,4,4,0,0,0,1.25.14,6.94,6.94,0,0,0,3.56-1.52,3.83,3.83,0,0,0,1.15,1.72C81,234.43,82.74,234.29,84.28,233.85Z" class="cls-7"></path><path d="M99.44,182.67a6.1,6.1,0,0,0,.61.51,6.84,6.84,0,0,0-1,1.67,5.57,5.57,0,0,1-1.55,1.07A5.72,5.72,0,0,1,90,183.14a1.36,1.36,0,0,1-.11-.28,6.46,6.46,0,0,1,.23-4.31c2.2,0,4.62-1.56,6.37-3.38A9.84,9.84,0,0,0,99.44,182.67Z" class="cls-9"></path><path d="M99,184.85a6.79,6.79,0,0,0-.3,5A8.47,8.47,0,0,1,93.9,193a6.07,6.07,0,0,1-3.79-.26l-.26-.14A4.47,4.47,0,0,1,88.14,191a5.33,5.33,0,0,1-.8-3.09,6.59,6.59,0,0,1,2.7-4.73,5.72,5.72,0,0,0,7.43,2.78A5.57,5.57,0,0,0,99,184.85Z" class="cls-8"></path><path d="M101.25,168a6.21,6.21,0,0,0,2.49,3.95c-1.6,1.31-3.63,2.1-5.4,1.21l-.15-.08a4.53,4.53,0,0,1-.84-.66A5.27,5.27,0,0,1,96.06,169a6.35,6.35,0,0,1,0-1.07,7.07,7.07,0,0,0,2.55-.72,6.53,6.53,0,0,0,2.39-2.19A12.46,12.46,0,0,0,101.25,168Z" class="cls-8"></path><path d="M108.36,145.17a10.3,10.3,0,0,1-1.94,6,5.31,5.31,0,0,1-1,1,4.72,4.72,0,0,1-4.7.75,4.13,4.13,0,0,1-1.38-1,6,6,0,0,1-1.39-3.2,8.6,8.6,0,0,1-.06-1.43,5,5,0,0,0,4.19-2.73Z" class="cls-14"></path><path d="M105.42,152.11a7.71,7.71,0,0,1-1.2,3.51,5.49,5.49,0,0,1-5.68,2.46,4.12,4.12,0,0,1-3-4,5.33,5.33,0,0,0,2.5-1,7.65,7.65,0,0,0,1.3-1.24,4.13,4.13,0,0,0,1.38,1A4.72,4.72,0,0,0,105.42,152.11Z" class="cls-7"></path><path d="M86.23,217A5.1,5.1,0,0,1,83.41,220a5.34,5.34,0,0,1-4.27.19,5.66,5.66,0,0,1-1.63-1,7.11,7.11,0,0,1-2.16-5,5.54,5.54,0,0,0,.9-.19,7.46,7.46,0,0,0,4.83-4.68,4.11,4.11,0,0,0,3-.26,11.31,11.31,0,0,0,1,6.12A6.15,6.15,0,0,0,86.23,217Z" class="cls-8"></path><path d="M81.08,209.36a5.17,5.17,0,0,1-2.86-1.94,6.91,6.91,0,0,1-1.17-3.06l-.34-4L84,198.75,87.16,204l.55.07a5.39,5.39,0,0,0,.9,3.64l-4.5,1.43A4.11,4.11,0,0,1,81.08,209.36Z" class="cls-9"></path><path d="M102.14,161.73a6.61,6.61,0,0,1-1.09,3.31h0a6.53,6.53,0,0,1-2.39,2.19,7.07,7.07,0,0,1-2.55.72,6.77,6.77,0,0,1-3.42-.52,3.68,3.68,0,0,1-2.07-2.32,10.2,10.2,0,0,1-.27-1.09,11.29,11.29,0,0,1-.1-3.48l5.7-2.61A10,10,0,0,0,102.14,161.73Z" class="cls-14"></path><path d="M83.36,223.6a7.16,7.16,0,0,0,.29,1.6,5.84,5.84,0,0,1-3.73,2.26,4.44,4.44,0,0,1-1.45-.09,3.81,3.81,0,0,1-2.91-2.69,4,4,0,0,1,0-1.83,7.51,7.51,0,0,1,.55-1.5,11.62,11.62,0,0,1,1.36-2.17,5.66,5.66,0,0,0,1.63,1,5.34,5.34,0,0,0,4.27-.19A17.74,17.74,0,0,0,83.36,223.6Z" class="cls-7"></path><path d="M109.32,136.71a6.66,6.66,0,0,1-.83,1.5c-1.08,1.49-3.2,2.4-4.83,1.55-1.94-1-2-3.69-1.55-5.9a2.81,2.81,0,0,0,1.11.14,4.26,4.26,0,0,0,2.84-1.57,5.46,5.46,0,0,0,1.08,2.82A4.43,4.43,0,0,0,109.32,136.71Z" class="cls-9"></path><path d="M113,126.84a5.9,5.9,0,0,1-1.76.91,4,4,0,0,1-4.15-1.09,1.33,1.33,0,0,1-.14-.19,5.76,5.76,0,0,1-.8-3.35V123a84.87,84.87,0,0,1,7.37-7.32C113.3,119.25,112.43,121,113,126.84Z" class="cls-9"></path><path d="M87.71,204l-.55-.07L84,198.75l-7.33,1.62.34,4a6.89,6.89,0,0,1-2.71,1.37,7,7,0,0,1-5.16-.78c1.6-4.93,3-9.93,4.7-14.59.1-.25.19-.51.28-.76,1.07-3,2.14-6,3.24-9a6.6,6.6,0,0,0,.28,1.32A4.17,4.17,0,0,0,80,184.6a16.36,16.36,0,0,0-.21,4.58,4.69,4.69,0,0,0,1.35,3.26,3.73,3.73,0,0,0,3.45.54,11.11,11.11,0,0,0,3.17-1.76,4,4,0,0,0,.35-.26,4.47,4.47,0,0,0,1.71,1.63l.26.14a6.77,6.77,0,0,0,.56,6.62A6.21,6.21,0,0,0,87.71,204Z" class="cls-15"></path><path d="M89.05,178.39a4.69,4.69,0,0,1-2.78-2.5,6.48,6.48,0,0,1-.75-3.18,5.15,5.15,0,0,0,2.85-.31c2.06-.88,3.27-2.94,4.31-5a6.77,6.77,0,0,0,3.42.52,6.35,6.35,0,0,0,0,1.07,5.27,5.27,0,0,0,1.29,3.36,6.41,6.41,0,0,0-.82,2.78c-1.75,1.82-4.17,3.4-6.37,3.38A3.77,3.77,0,0,1,89.05,178.39Z" class="cls-15"></path><path d="M78.25,229.83a7.28,7.28,0,0,0,.33,1.9A6.94,6.94,0,0,1,75,233.25a4,4,0,0,1-1.25-.14,5.28,5.28,0,0,1-3.54-5.18,4.67,4.67,0,0,1,.25-1.33,6.2,6.2,0,0,1,5.12-3.75,4,4,0,0,0,0,1.83,3.81,3.81,0,0,0,2.91,2.69A10.2,10.2,0,0,0,78.25,229.83Z" class="cls-9"></path><path d="M99,138l3.09,6.52a5,5,0,0,1-4.19,2.73,4.63,4.63,0,0,1-2.48-.51,4.85,4.85,0,0,1-2.38-3.3h0c.15-.31.31-.61.47-.92.68-1.3,1.38-2.6,2.09-3.89l.19.11Z" class="cls-7"></path><path d="M88.14,191a4,4,0,0,1-.35.26A11.11,11.11,0,0,1,84.62,193a3.73,3.73,0,0,1-3.45-.54,4.69,4.69,0,0,1-1.35-3.26A16.36,16.36,0,0,1,80,184.6a1.83,1.83,0,0,0,.33.11,4.83,4.83,0,0,0,3.42-.72,12.63,12.63,0,0,0,5.27-5.6,3.77,3.77,0,0,0,1.11.16,6.46,6.46,0,0,0-.23,4.31,1.36,1.36,0,0,0,.11.28,6.59,6.59,0,0,0-2.7,4.73A5.33,5.33,0,0,0,88.14,191Z" class="cls-7"></path><path d="M106.06,130.2a10.39,10.39,0,0,0,0,2.23,4.26,4.26,0,0,1-2.84,1.57,2.81,2.81,0,0,1-1.11-.14,4.56,4.56,0,0,1-2.5-2.14v0l.06-.1a63.44,63.44,0,0,1,6.45-8.62v.14a5.76,5.76,0,0,0,.8,3.35A15.89,15.89,0,0,0,106.06,130.2Z" class="cls-14"></path><path d="M73.27,236.07a6.83,6.83,0,0,0,.11,1.35,6.86,6.86,0,0,1-1.74.85,4.37,4.37,0,0,1-5.93-3.08,6.6,6.6,0,0,1-.18-2.8,5,5,0,0,1,4.7-4.46,5.28,5.28,0,0,0,3.54,5.18A11.06,11.06,0,0,0,73.27,236.07Z" class="cls-14"></path><path d="M99.34,151.83a7.65,7.65,0,0,1-1.3,1.24,5.33,5.33,0,0,1-2.5,1,3.74,3.74,0,0,1-2.92-.71c-1.61-1.29-1.67-3.71-1.33-5.75.09-.47.18-.93.29-1.4h0q.7-1.44,1.44-2.85a4.85,4.85,0,0,0,2.38,3.3,4.63,4.63,0,0,0,2.48.51,8.6,8.6,0,0,0,.06,1.43A6,6,0,0,0,99.34,151.83Z" class="cls-8"></path><path d="M68.88,205.85q.15-.43.3-.9a7,7,0,0,0,5.16.78,6.89,6.89,0,0,0,2.71-1.37,6.91,6.91,0,0,0,1.17,3.06,5.17,5.17,0,0,0,2.86,1.94A7.46,7.46,0,0,1,76.25,214a5.54,5.54,0,0,1-.9.19,6.48,6.48,0,0,1-5.83-2.2,5.85,5.85,0,0,1-1.15-4.64c0-.13.09-.26.13-.39C68.63,206.62,68.76,206.24,68.88,205.85Z" class="cls-14"></path><path d="M96.74,157l-.8.92-5.7,2.61a11.29,11.29,0,0,0,.1,3.48c-1.44,1.25-3.18,1.91-4.94,1a3.47,3.47,0,0,1-1.48-1.53c2.12-5.23,4.36-10.4,6.81-15.47.28-.58.56-1.17.85-1.75-.11.47-.2.93-.29,1.4-.34,2-.28,4.46,1.33,5.75a3.74,3.74,0,0,0,2.92.71A4,4,0,0,0,96.74,157Z" class="cls-9"></path><path d="M77.51,219.18a11.62,11.62,0,0,0-1.36,2.17,7.51,7.51,0,0,0-.55,1.5,6.2,6.2,0,0,0-5.12,3.75,4.67,4.67,0,0,0-.25,1.33,5,5,0,0,0-4.7,4.46l-.19,0-2.73-5.09-5.18-.61a26.89,26.89,0,0,0,5.94-7.18,83.65,83.65,0,0,0,5-12.1A5.85,5.85,0,0,0,69.52,212a6.48,6.48,0,0,0,5.83,2.2A7.11,7.11,0,0,0,77.51,219.18Z" class="cls-15"></path><path d="M86.27,175.89a4.69,4.69,0,0,0,2.78,2.5,12.63,12.63,0,0,1-5.27,5.6,4.83,4.83,0,0,1-3.42.72,1.83,1.83,0,0,1-.33-.11,4.17,4.17,0,0,1-2.35-2.68,6.6,6.6,0,0,1-.28-1.32c1.36-3.76,2.74-7.51,4.19-11.23a5.15,5.15,0,0,0,1.58,2.29,5,5,0,0,0,2.35,1.05A6.48,6.48,0,0,0,86.27,175.89Z" class="cls-14"></path><path d="M92.68,167.44c-1,2-2.25,4.08-4.31,5a5.15,5.15,0,0,1-2.85.31,5,5,0,0,1-2.35-1.05,5.15,5.15,0,0,1-1.58-2.29h0c.36-.94.73-1.88,1.1-2.82l1.23-3.07A3.47,3.47,0,0,0,85.4,165c1.76.94,3.5.28,4.94-1a10.2,10.2,0,0,0,.27,1.09A3.68,3.68,0,0,0,92.68,167.44Z" class="cls-9"></path><path d="M66.82,164.8a81.29,81.29,0,0,1,6.24-11.21c.64-1,1.31-1.88,2-2.8a42.91,42.91,0,0,1,3.52-4h0c5-5.06,11.32-8.94,18.08-10.14-.37.64-.73,1.29-1.09,1.94-.71,1.29-1.41,2.59-2.09,3.89l-.57.18a3.66,3.66,0,0,0,.1.74h0q-.73,1.41-1.44,2.85h0c-.29.58-.57,1.17-.85,1.75l-.28-.14c-11.85,10-18.36,24.71-25.75,38.34-7.08,13.05-16.21,26.24-29.79,31.9a3,3,0,0,1-2.9-2.31c-.89-6.34,11.16-9.45,14.58-12.9,6-6.1,10-14.35,13.35-22.13,1.22-2.8,2.38-5.63,3.57-8.46C64.57,169.78,65.66,167.27,66.82,164.8Z" class="cls-5"></path><path d="M65.71,235.19l-.42.16c-1.8,1.65-5.94,2.28-8.5,1.22a3.53,3.53,0,0,1-1.77-1.4,7.08,7.08,0,0,1-.3-6.21c.93-.74,1.84-1.5,2.71-2.29l5.18.61,2.73,5.09.19,0A6.6,6.6,0,0,0,65.71,235.19Z" class="cls-9"></path><path d="M90.45,147.86l.28.14c-2.45,5.07-4.69,10.24-6.81,15.47l-1.23,3.07c-6.63,9.43-12.18,19.67-18.64,29.25-7.42,11-16.62,21.52-28.33,27.41l3.91-6.89a9.2,9.2,0,0,1-4.16,1.8,2.1,2.1,0,0,1-.56,0c13.58-5.66,22.71-18.85,29.79-31.9C72.09,172.57,78.6,157.85,90.45,147.86Z" class="cls-5"></path><path d="M82.69,166.54c-.37.94-.74,1.88-1.1,2.82h0c-1.45,3.72-2.83,7.47-4.19,11.23-1.1,3-2.17,6-3.24,9a80.36,80.36,0,0,0-5.64,6.31c-5.55,6.9-10,14.69-16,21.19-4.75,5.11-10.81,9.47-17.5,11h0l-1.63-.76,2.34-4.12c11.71-5.89,20.91-16.41,28.33-27.41C70.51,186.21,76.06,176,82.69,166.54Z" class="cls-5"></path><path d="M74.16,189.6c-.09.25-.18.51-.28.76C72.22,195,70.78,200,69.18,205q-.15.47-.3.9a6,6,0,0,0-.46,1.26h0a64,64,0,0,1-33.09,24.64h0a17.26,17.26,0,0,0,1.78-2.7l-2.09-1c6.69-1.51,12.75-5.87,17.5-11,6-6.5,10.46-14.29,16-21.19A80.36,80.36,0,0,1,74.16,189.6Z" class="cls-5"></path><path d="M48.89,231.74a49.93,49.93,0,0,1-16.5,2.95,18.88,18.88,0,0,0,2.93-2.93h0a64,64,0,0,0,33.09-24.64,2.16,2.16,0,0,0,0,.27,83.65,83.65,0,0,1-5,12.1,26.89,26.89,0,0,1-5.94,7.18l-.37,0A4.18,4.18,0,0,0,54.72,229l-.84.67A52.15,52.15,0,0,1,48.89,231.74Z" class="cls-5"></path><path d="M56.79,236.57l-.1.24h0a5.41,5.41,0,0,1-5.22,3.09,4.91,4.91,0,0,1-4.16-5.43h0c.64-.42,1.26-.85,1.86-1.3,1.49-1.1,3.1-2.28,4.7-3.54l.84-.67a7.08,7.08,0,0,0,.3,6.21A3.53,3.53,0,0,0,56.79,236.57Z" class="cls-7"></path><path d="M77.05,146.68a3.52,3.52,0,0,0,1.55.09,42.91,42.91,0,0,0-3.52,4c-.71.92-1.38,1.85-2,2.8h0A103.43,103.43,0,0,0,15.67,193c-2.13,3-4.16,6.42-4.18,10h0a32.27,32.27,0,0,0-3,10.48c-2.49-10.57.83-22.11,7.07-31.11,6.8-9.79,16.65-17,26.77-23.29,10.32-6.41,21.5-12.17,33.57-13.24A2.46,2.46,0,0,0,77.05,146.68Z" class="cls-5"></path><path d="M53.88,229.63c-1.6,1.26-3.21,2.44-4.7,3.54-.6.45-1.22.88-1.86,1.3h0c-6.55,4.32-15.17,7.31-22.6,6.24a4.58,4.58,0,0,1-.79-2.25,18.3,18.3,0,0,0,8.47-3.79h0a49.93,49.93,0,0,0,16.5-2.95A52.15,52.15,0,0,0,53.88,229.63Z" class="cls-16"></path><path d="M75.51,145.26a5.9,5.9,0,0,0,.43.59c-12.07,1.07-23.25,6.83-33.57,13.24-10.12,6.29-20,13.5-26.77,23.29-6.24,9-9.56,20.54-7.07,31.11a33,33,0,0,0,2.81,16.83,22.39,22.39,0,0,0,1.49,2.8l-.35.28C1.16,219.6,1.6,198.69,10,182.91c7.07-13.34,18.63-23,31.1-31.09,10.35-6.7,21.45-9.08,32.62-13A11.67,11.67,0,0,0,75.51,145.26Z" class="cls-5"></path><path d="M73.05,153.59h0a81.29,81.29,0,0,0-6.24,11.21,94.75,94.75,0,0,0-37.71,21h0A37,37,0,0,0,11.49,203c0-3.55,2-7,4.18-10A103.43,103.43,0,0,1,73.05,153.59Z" class="cls-5"></path><path d="M66.82,164.8c-1.16,2.47-2.25,5-3.31,7.5-.17.09-.33.17-.5.24-11,5.17-22.95,8-33.9,13.24A94.75,94.75,0,0,1,66.82,164.8Z" class="cls-5"></path><path d="M12.48,233.4l.35-.28a16.34,16.34,0,0,0,11.88,7.6l11.42,4.43c-1.68,3.82-5.38,6.46-9.34,7.81-7.93,2.72-19.2,2.09-27.15-.26a53.1,53.1,0,0,1-12.72-6c-7.87-4.87-15.45-11.53-18.43-20.11l6.75,1.63a55,55,0,0,0,4.31,6.39c6.77,8.53,22.55,17.41,40.61,14.53.23-.17.47-.34.69-.52a30.41,30.41,0,0,1-4.82-.85h0a18.7,18.7,0,0,1-2.25-1.21,23.41,23.41,0,0,1-2.52-1.83C4,238.63-.22,227.91-2.41,219.18A66.32,66.32,0,0,1,0,179.85c6.93-18.33,20.87-33.21,37.18-44.29a38.19,38.19,0,0,1,9.25-.4c-1.57-.13-4.7,3.81-4.34,5.33.27,1.15,1.35,1.57,2.69,1.65a37.57,37.57,0,0,0,5.87-.64,185.65,185.65,0,0,0,23.07-3.61,8.85,8.85,0,0,0,0,.89c-11.17,4-22.27,6.34-32.62,13-12.47,8.07-24,17.75-31.1,31.09C1.6,198.69,1.16,219.6,12.48,233.4Z" class="cls-5"></path><path d="M26.31,255.72c-4.86,1.78-10.49,2.13-15.72,1.89a100.27,100.27,0,0,1-19-2.69c-12-2.88-18.68-11-23.85-21.66a14,14,0,0,1-1.44-7.2c.72.16,1.43.34,2.15.51,3,8.58,10.56,15.24,18.43,20.11a53.1,53.1,0,0,0,12.72,6c8,2.35,19.22,3,27.15.26,4-1.35,7.66-4,9.34-7.81l-1.55,4.91A19,19,0,0,1,26.31,255.72Z" class="cls-5"></path><path d="M20.85,248.6c-.22.18-.46.35-.69.52-18.06,2.88-33.84-6-40.61-14.53a55,55,0,0,1-4.31-6.39l.12,0A42.74,42.74,0,0,1-26,208.74c2.21,7.19,5,14.23,9.26,20.42,5.26,7.66,15.64,16.9,25.7,16H9l.07,0,.09,0,0,0a13.13,13.13,0,0,0,1.62.75h0A35.31,35.31,0,0,0,16,247.75h0A30.41,30.41,0,0,0,20.85,248.6Z" class="cls-5"></path><path d="M16,247.75A35.31,35.31,0,0,1,10.8,246h0l-1.62-.75,0,0-.09,0-.06,0a20.27,20.27,0,0,1-4.79-4c-7.35-8-10.44-18.57-12.17-29.08-3.6-21.95,2.28-46.34,18.69-61.16l.41.69a40.39,40.39,0,0,1,26.08-16C20.88,146.64,6.94,161.52,0,179.85a66.32,66.32,0,0,0-2.42,39.33c2.19,8.73,6.36,19.45,13.66,25.53a23.41,23.41,0,0,0,2.52,1.83A18.7,18.7,0,0,0,16,247.75Z" class="cls-5"></path><path d="M-4.73,234.06A97.11,97.11,0,0,1-13.9,221.4h0a45.08,45.08,0,0,1-3.36-17.75c.09-11.54,3.8-22.71,7.9-33.49q2.41-6.35,5-12.62c4.9-4,9.52-8.05,10.65-14.07q2.21,3.72,4.39,7.44C-5.71,165.72-11.59,190.11-8,212.06c1.73,10.51,4.82,21.06,12.17,29.08a20.27,20.27,0,0,0,4.79,4H9a40.88,40.88,0,0,1-12-9.17C-3.64,235.32-4.19,234.69-4.73,234.06Z" class="cls-5"></path><path d="M9,245.11c-10.06.95-20.44-8.29-25.7-16C-21,223-23.8,215.93-26,208.74a42,42,0,0,1,1.32-5.67l3.13,1.49c.41,1.43.89,2.85,1.42,4.23a81.5,81.5,0,0,0,6.24,12.6h0a97.11,97.11,0,0,0,9.17,12.66c.54.63,1.09,1.26,1.65,1.88A40.88,40.88,0,0,0,9,245.11Z" class="cls-5"></path><g id="錦鯉線條"><path d="M153.76,93.57a17.79,17.79,0,0,0,4.91-2.86c1.61-1.3,3.42-3.41,5.58-3.68,1.64-.2,3.05,1.7,4.61.56.6-.44.88-1.22,1.38-1.76.27-.3.32-.49.67-.36s.47.56.57.74c1.69,3.13,1.05,7.31.84,10.68a68.24,68.24,0,0,1-1.85,12.8c-.14.53,1.34.32,1.47-.18A64.16,64.16,0,0,0,173.7,98c.25-3.31.66-6.72,0-10-.37-1.72-1.2-4.17-3.43-3.25a3.56,3.56,0,0,0-1.22.89,6.25,6.25,0,0,0-.56.69c-.42.59-.4.7-1.08.41a5.5,5.5,0,0,0-4-.26,13.09,13.09,0,0,0-4.43,2.81,20.33,20.33,0,0,1-5.76,3.7c-1,.36-.08.86.59.6Z" class="cls-17"></path><path d="M169.46,90.9A18.13,18.13,0,0,1,167,97.46a17.63,17.63,0,0,1-5,5.05c-.36.25.45.13.57.07a14.9,14.9,0,0,0,7.62-11.87c0-.07-.67,0-.7.19Z" class="cls-18"></path><path d="M100.8,250.7a117.32,117.32,0,0,1-28.92,6.42,153.05,153.05,0,0,1-45.82-1.94c-.47-.09-1.74.65-.9.81A157,157,0,0,0,85,255.93a102.48,102.48,0,0,0,16.43-4.62c1-.36.09-.86-.58-.61Z" class="cls-17"></path><path d="M172.06,88a16.85,16.85,0,0,1,5.57,8.5c1,3.11,1.65,6.36,3.14,9.29a28.41,28.41,0,0,0,2.77,4,21.41,21.41,0,0,1,2.87,5.27,36.62,36.62,0,0,1,2.09,11.17A119.69,119.69,0,0,1,179.15,179a118.68,118.68,0,0,1-15.89,26.86c-.4.51,1.08.41,1.38,0A119.66,119.66,0,0,0,187.69,156,126.85,126.85,0,0,0,190.07,129a47.46,47.46,0,0,0-1.31-11.58,25.09,25.09,0,0,0-2.13-5.49,40.37,40.37,0,0,0-3.1-4.43c-2.28-3.13-3.06-7-4.17-10.6s-2.8-7-5.93-9.46c-.41-.32-1.77.26-1.37.57Z" class="cls-17"></path><path d="M109.64,247.79a174.47,174.47,0,0,0,25.58-15l-.91.18c.61.19,1.22-.4,1.66-.71.89-.63,1.78-1.27,2.66-1.92q2.87-2.1,5.66-4.3c.66-.51-.81-.53-1.18-.24q-4.32,3.39-8.8,6.55l.91-.18c-.62-.19-1.26.42-1.7.73-1.12.77-2.25,1.54-3.39,2.29q-3.34,2.22-6.78,4.29a156.74,156.74,0,0,1-14.29,7.66c-.93.44-.08.92.58.61Z" class="cls-17"></path><path d="M112.75,115.76c-.1,1.59-.37,3.16-.54,4.74a33.15,33.15,0,0,0,0,6.3c.39,4.62,1,9.52,2.86,13.81a33.51,33.51,0,0,0,22.85,19.5,36.53,36.53,0,0,0,8.06,1c2.94,0,5.86.28,8.79.46,5.34.32,11,.51,16.14-1.23,7.1-2.39,10.34-9.49,11.79-16.34,1.67-7.92,1.47-16.2.87-24.24,0-.47-1.52-.16-1.48.4a97.15,97.15,0,0,1-.2,20.1c-.85,6.36-2.7,14-8.28,17.87-4.33,3-10.52,2.94-15.57,2.74-2.7-.11-5.38-.33-8.07-.48a80.2,80.2,0,0,1-8.2-.5A32.27,32.27,0,0,1,127.25,154a34.92,34.92,0,0,1-9.79-11.77c-2.32-4.53-3.13-9.63-3.68-14.65a33.7,33.7,0,0,1-.13-6.81c.16-1.72.47-3.43.57-5.16,0-.6-1.45-.31-1.47.19Z" class="cls-18"></path><path d="M145.51,165.38a3.7,3.7,0,0,1,4.56-.31,5.89,5.89,0,0,1,1.74,2,4,4,0,0,0,1.92,1.89c1.74.62,3.54-.57,4.46-2a9.09,9.09,0,0,0,1.27-5.87c-.06-.48-1.54-.16-1.48.4a8.14,8.14,0,0,1-1.47,5.86,2.62,2.62,0,0,1-1,.85,1.39,1.39,0,0,1-1.4-.49,11.37,11.37,0,0,1-1.35-1.93c-1.85-2.75-6.08-2.92-8.42-.68-.23.22-.14.43.14.52a1.26,1.26,0,0,0,1-.28Z" class="cls-18"></path><path d="M179.54,154.23a17.57,17.57,0,0,0,.88,6.15,6.26,6.26,0,0,0,4.23,3.83,1.28,1.28,0,0,0,1-.28c.23-.23.16-.44-.14-.53-4.17-1.12-4.46-6-4.54-9.57,0-.46-1.49-.17-1.48.4Z" class="cls-18"></path><path d="M175.67,114.54a45.74,45.74,0,0,1,1.3,18.3c-.62,5.73-1.39,12.34-5.52,16.74-2,2.13-4.86,3.76-7.86,3.49-3.15-.28-5.85-2.26-9-2.57-3-.3-5.94.39-8.89.74a14.13,14.13,0,0,1-8.63-1.37c-6-3.22-9-9.86-11.7-15.74-.14-.3-1.21,0-1.1.29,2.27,5.84,4.81,11.81,10.23,15.43a14.46,14.46,0,0,0,8.16,2.45c3.31,0,6.52-1,9.83-1s6.31,1.79,9.65,2.27a10.83,10.83,0,0,0,6.88-1.39c5.42-3.06,7.37-9.13,8.28-14.93,1.16-7.38,2-15.75-1-22.8-.05-.11-.6,0-.58.11Z" class="cls-18"></path><path d="M142,127.27a7.42,7.42,0,0,1-8.21-2c-3.34-3.89-.09-10.92,4.94-11.7C146.42,112.39,149.33,124.28,142,127.27Z" class="cls-19"></path><path d="M137.27,112.46c-5.37,0-10.37,4.38-10.51,9.86a10.4,10.4,0,0,0,10.34,10.59c3.05,0,6.31-1.13,8.19-3.62.26-.35-.82-.16-1,0-3.71,3.33-9.43,4-13.2.36A9.94,9.94,0,0,1,129.67,117a10.05,10.05,0,0,1,7.23-4.28c.09,0,.69-.23.37-.23Z" class="cls-18"></path><path d="M140.54,124.27a4.05,4.05,0,0,1-5.14-4.85,4.25,4.25,0,1,1,2.48,4.89" class="cls-19"></path><path d="M157,101.82a6.33,6.33,0,0,0,.17-1.36,8.88,8.88,0,0,0-2.44-5.94,13.53,13.53,0,0,0-1.27-1.25c-4.55-3.91-9.89-3-15.87-2.86a66.15,66.15,0,0,1-15.49-1.58c-4.73-1-9.48-2.71-13.06-6C94.42,69.44,96.52,39.15,106.42,24" class="cls-19"></path><path d="M106.42,24h0a17.19,17.19,0,0,0-6.4,7.53c-8.7,22.1-7.3,54,20,60.33a70.81,70.81,0,0,0,17.62,2c3.89-.18,8-.7,11.54.81a8.38,8.38,0,0,1,4.84,6.1" class="cls-19"></path><path d="M150.44,99a4,4,0,0,0,2.2,1.72,9.75,9.75,0,0,0,3.14.3,2.82,2.82,0,0,0,2.55-1.23,2.19,2.19,0,0,0,.17-.29c0,.07-.56.09-.25.11a1.5,1.5,0,0,0,.63-.11.66.66,0,0,0,.46-.86c-.05-.25-.94,0-1,.19a1.73,1.73,0,0,0-.07.31c-.08.17,0,.16.32,0s.45-.08.29-.1a1.08,1.08,0,0,0-.36,0,1.57,1.57,0,0,0-1.13.43c-.24.26-.29.67-.61.86a1.91,1.91,0,0,1-.89.17,7.78,7.78,0,0,1-2.68-.18,4.65,4.65,0,0,1-2.12-1.45c-.1-.11-.72.11-.68.18Z" class="cls-17"></path><path d="M159.05,89.79a9.85,9.85,0,0,0-2.48-5.45c-2.2-2.47-5.2-4.11-7.56-6.44-4.23-4.19-5.2-10.5-4.82-16.45.48-8,4.54-14,10-19.72,1-1,2.08-3.11,3.46-2.86-4.54,6-8.82,12.54-10.25,19.94a23.33,23.33,0,0,0,1.09,13c1.89,4.74,5.43,6.88,9,10.16a15.77,15.77,0,0,1,4.18,5.82" class="cls-19"></path><path d="M150.74,165.14c-12.54,9.75-13.22,28.52-11.84,43,.24,2.45.57,4.89,1,7.31.2,1.06.42,2.12.67,3.17.14.6.28,1.21.45,1.8l.15.49c0,.11.27.13.28.17l-.18.24.14.46a4.76,4.76,0,0,0,.27.91c.16.52.33,1.05.5,1.57.4,1.17.83,2.33,1.3,3.47A54.45,54.45,0,0,0,146.6,234c2.31,4.08,5,7.93,7.16,12.09a36.17,36.17,0,0,1,4,13.09,38.71,38.71,0,0,1-9.26,28.83c-.45.52,1.14.42,1.48,0a39.39,39.39,0,0,0,9.52-24.1,35.36,35.36,0,0,0-2-13.37,64.83,64.83,0,0,0-6.29-11.94,76.22,76.22,0,0,1-6.58-12.48c-.41-1.08-.79-2.17-1.15-3.27q-.25-.79-.48-1.59a7.77,7.77,0,0,0-.26-.91c0-.09-.22-.15-.24-.19s.14-.16.11-.26c-.08-.29-.15-.59-.23-.89-.13-.53-.25-1.05-.37-1.58-.27-1.21-.51-2.42-.72-3.64a83.49,83.49,0,0,1-.5-26.49c1.26-8.29,4.39-16.67,11.2-22,.71-.55-.87-.58-1.28-.26Z" class="cls-17"></path><path d="M165.48,268.74c-.52,1.72-.8,3.45-1.48,5.13a24.81,24.81,0,0,1-2.9,5.24,23.49,23.49,0,0,1-9.49,7.63l.8-.11a1.84,1.84,0,0,0-1.14.25c-.7.29-1.4.55-2.13.79-.93.29-.74,1.1.22.79a30,30,0,0,0,2.87-1.07l-.8.11c.75.22,1.85-.58,2.48-.91a26.45,26.45,0,0,0,3-1.81,25,25,0,0,0,4.84-4.52,25.38,25.38,0,0,0,3.37-5.43,26.88,26.88,0,0,0,1.24-3.23c.31-1,.44-2.06.74-3.06.17-.56-1.43-.34-1.59.2Z" class="cls-17"></path><path d="M89.27,246.15c.76,1.4,2.5,1.64,3.93,1.25a10.12,10.12,0,0,0,4.58-3.5,4.77,4.77,0,0,0,1.07-2.67,4.25,4.25,0,0,1,1-2.64c1.22-1.31,3.24-1.64,4.92-1.88.24,0,.82-.19.84-.5s-.4-.35-.64-.32c-2.72.39-6.63,1.24-7.39,4.37A12.91,12.91,0,0,1,97,243a8.42,8.42,0,0,1-1.94,2.27,5.13,5.13,0,0,1-2.24,1.47,2,2,0,0,1-2.09-.95c-.27-.5-1.7,0-1.47.4Z" class="cls-18"></path><path d="M95.84,244.83c6.25,5.3,6.87,13.88,4.79,21.33-2,7.15-5.69,14.67-11.46,19.51a41.6,41.6,0,0,1-5.1,3.62c-.89.54-1.8,1-2.72,1.53-.61.32-1.23.62-1.85.91l-.61.27c-.28.12-.87.17-.32.33-.44-.13-1.62.52-.84.75.48.15,1.09-.25,1.51-.43,1-.43,2-.91,3-1.42a46.17,46.17,0,0,0,5.42-3.31,31.21,31.21,0,0,0,8-8A49.57,49.57,0,0,0,101,269.08a29.94,29.94,0,0,0,2-13,17.61,17.61,0,0,0-5.94-11.83c-.37-.32-1.66.22-1.28.54Z" class="cls-17"></path><path d="M105.25,298.5c7-6.24,13.44-14.85,14.92-24.32,1.45-9.26-2.46-18-8.37-25A42,42,0,0,0,99.16,239c-.39-.21-1.66.38-1.1.67a41.79,41.79,0,0,1,18.73,20A27.05,27.05,0,0,1,119,272.47a31.77,31.77,0,0,1-4.77,13.63,52.53,52.53,0,0,1-10.11,12.18c-.59.52.77.52,1.11.22Z" class="cls-17"></path><path d="M-34.4,226.15a18.07,18.07,0,0,0,2.51,9.41,53,53,0,0,0,4.43,7.19,32.63,32.63,0,0,0,12.82,10.62,45,45,0,0,0,9.33,2.73,101.83,101.83,0,0,0,11.78,1.68c7.13.6,14.72.63,21.4-2.27a21.58,21.58,0,0,0,4.48-2.61,10.15,10.15,0,0,0,3-3,38,38,0,0,0,1.53-4.85c.16-.51-1.32-.32-1.48.18l-1.29,4.1c-.69,2.2-3.47,3.85-5.4,4.89-6.25,3.33-13.82,3.3-20.7,2.79a98.61,98.61,0,0,1-11.23-1.49A48.63,48.63,0,0,1-12.66,253,31.3,31.3,0,0,1-25,243.64,50.06,50.06,0,0,1-30,236c-1.73-3.21-3.06-6.27-2.92-10,0-.61-1.46-.31-1.48.18Z" class="cls-17"></path><path d="M167,268.55a4,4,0,0,0-.21-1.48c-.16-.91-.37-1.82-.6-2.72a50.78,50.78,0,0,0-1.91-5.78c-1.36-3.46-3-6.81-4.58-10.16-3.21-6.73-6.54-13.42-9.4-20.31-5.5-13.22-9.17-27.53-6.48-41.87a44.38,44.38,0,0,1,3.34-10.61,38.44,38.44,0,0,1,2.65-4.78q.84-1.29,1.8-2.52c.4-.49,1.31-1.21,1.49-1.81s-1.32-.32-1.47.18c-.08.24-.66.71-.83.91s-.56.69-.83,1c-.54.7-1.07,1.42-1.54,2.17a44.64,44.64,0,0,0-2.35,4.15,43.76,43.76,0,0,0-3.21,9,57.14,57.14,0,0,0-1,20.15c1.75,14.69,8.44,28.23,14.77,41.39,1.8,3.73,3.63,7.46,5.26,11.27a61.85,61.85,0,0,1,2.31,6.17c.31,1,.6,2.09.83,3.15.1.45.19.91.27,1.36s.11.61.15.91c0,.49.07.61.07.37-.16.51,1.32.31,1.47-.19Z" class="cls-20"></path><path d="M148.15,171.29A41,41,0,0,0,147,179.4a74.85,74.85,0,0,0-.2,8.47,73.78,73.78,0,0,0,2.4,16.32,71.66,71.66,0,0,0,6,15.35c2.61,4.93,5.92,9.45,8.69,14.28a87.91,87.91,0,0,1,4.32,8.49c.66,1.51,1.27,3.05,1.81,4.62.24.7.47,1.42.68,2.13a12.71,12.71,0,0,0,.58,2.16c.27.5,1.7,0,1.48-.39a9.39,9.39,0,0,1-.46-1.73c-.16-.58-.34-1.15-.52-1.72-.47-1.42-1-2.83-1.56-4.22a82.6,82.6,0,0,0-3.74-7.76c-2.57-4.7-5.67-9.07-8.38-13.68a73.2,73.2,0,0,1-9.69-41.29c.1-1.54.25-3.09.46-4.62a29.55,29.55,0,0,1,.78-4.7c.15-.52-1.33-.32-1.48.18Z" class="cls-20"></path><path d="M172.49,237.49c-.15-7.43-4.14-13.78-8.18-19.73a139.63,139.63,0,0,1-12-20.66,49.36,49.36,0,0,1-4-13.1c-.07-.5-1.56-.16-1.48.39,1.19,8.08,4.9,15.43,8.91,22.44,1.86,3.23,3.78,6.4,5.88,9.49a97.73,97.73,0,0,1,6.05,9.54,27,27,0,0,1,3.41,12c0,.46,1.48.18,1.47-.39Z" class="cls-20"></path><path d="M147.14,173a.32.32,0,0,0-.1.1,1,1,0,0,0,0,.11v.11h0a.19.19,0,0,0,.1.13.37.37,0,0,0,.18.08.76.76,0,0,0,.26,0,1.35,1.35,0,0,0,.29,0l.2-.07a1.14,1.14,0,0,0,.3-.18l.09-.11a.23.23,0,0,0,.05-.21h0v.11h0l-.05.11h0l-.09.11h0a.31.31,0,0,0,.12-.16.22.22,0,0,0,0-.16.2.2,0,0,0-.11-.13.29.29,0,0,0-.18-.07l-.16,0a1.27,1.27,0,0,0-.39,0l-.19.06a1.17,1.17,0,0,0-.3.19Z" class="cls-17"></path><path d="M147.75,179.14h0l.1.07h0l.05.09h0l-.05.21h0l-.23.2h0a.65.65,0,0,0,.18-.15.25.25,0,0,0,.1-.16.16.16,0,0,0,0-.15.24.24,0,0,0-.13-.11l-.13,0a1,1,0,0,0-.35,0l-.2,0a1.46,1.46,0,0,0-.36.16.18.18,0,0,0-.07.05.46.46,0,0,0-.16.15.07.07,0,0,0,0,.06.2.2,0,0,0,0,.15.21.21,0,0,0,.06.1l.1.07a.54.54,0,0,0,.21,0h.27a1.11,1.11,0,0,0,.3-.08.85.85,0,0,0,.26-.11l.14-.1a.49.49,0,0,0,.14-.21v-.11a.24.24,0,0,0-.15-.16Z" class="cls-17"></path><path d="M168.13,264.74a57.75,57.75,0,0,0-3.54-19c-2.11-5.54-5.34-10.56-8.33-15.66a72.6,72.6,0,0,1-7.52-17,67.61,67.61,0,0,1,.62-39c.17-.51-1.31-.32-1.47.18a68.47,68.47,0,0,0-1.41,36.2A66.87,66.87,0,0,0,153.33,228c2.95,5.27,6.34,10.3,8.81,15.83a56.25,56.25,0,0,1,4.51,21.34c0,.46,1.49.18,1.48-.39Z" class="cls-20"></path><path d="M228.76,209.3A60,60,0,0,1,214.59,212c-.73,0-1.23.88-.2.81A60.63,60.63,0,0,0,229,210c.22-.06.73-.25.64-.56s-.64-.24-.83-.17Z" class="cls-20"></path><path d="M229.64,205.06a50.79,50.79,0,0,1-8.86,2.67c-.22.05-.72.27-.64.57s.63.21.84.17a52.38,52.38,0,0,0,9.24-2.81c.21-.08.6-.33.4-.59s-.75-.1-1,0Z" class="cls-20"></path><path d="M209.92,217.36a40,40,0,0,0,13-1.47c.22-.06.73-.26.64-.57s-.63-.22-.83-.17a37.6,37.6,0,0,1-12.26,1.37c-.29,0-.83.11-1,.41s.12.42.4.43Z" class="cls-20"></path><path d="M170.1,196.29c4.34,12.45,16.29,22.07,29.9,19.9.71-.11,1.23-1,.21-.81-13.11,2.08-24.5-7.62-28.63-19.49-.18-.51-1.65-.09-1.48.4Z" class="cls-20"></path><path d="M171.6,193.86a24.92,24.92,0,0,0,14.08,14.19,28.33,28.33,0,0,0,20.09-.3c1-.36.09-.85-.58-.6A25.86,25.86,0,0,1,186,207a24.42,24.42,0,0,1-12.88-13.51c-.2-.51-1.66-.07-1.47.4Z" class="cls-20"></path><path d="M174,208.78a41.19,41.19,0,0,0,13.12,12.59,23.7,23.7,0,0,0,18.51,2c.87-.26.69-1-.2-.74a22.05,22.05,0,0,1-18.15-2.61,41.62,41.62,0,0,1-11.91-11.85c-.28-.4-1.71.09-1.37.58Z" class="cls-20"></path><path d="M201.9,213.45c9.59-2.1,19.68-5.23,26.23-13,.08-.11-.73-.13-.88,0-6.55,7.37-16.19,10.5-25.46,12.85-.34.09-.13.17.11.12Z" class="cls-20"></path><path d="M96.92,243.45a31.43,31.43,0,0,1,11.9,17A30.18,30.18,0,0,1,107,281.2a31,31,0,0,1-7.26,9.87c-.63.57.82.57,1.18.24a32.06,32.06,0,0,0,10.12-18.84A30.58,30.58,0,0,0,106.78,252a31.64,31.64,0,0,0-8.49-9.14c-.42-.31-1.77.29-1.37.58Z" class="cls-20"></path><path d="M95.94,244.91a24.05,24.05,0,0,1,9.7,17.54,29,29,0,0,1-2,11.71,41.43,41.43,0,0,1-5,9.8,27.73,27.73,0,0,1-8.86,8.42c-.86.49.43.71.92.43,6.36-3.67,10.76-9.94,13.53-16.62a33.18,33.18,0,0,0,2.88-12.33,24.37,24.37,0,0,0-9.87-19.53c-.42-.31-1.77.28-1.37.58Z" class="cls-20"></path><path d="M97.42,242.44c4,2,7.1,5.44,10.08,8.65a21.13,21.13,0,0,1,5.92,11.61c1.3,8.89-.28,19.3-6.25,26.29-.41.48,1.07.39,1.38,0,4.91-5.76,6.57-13.31,6.67-20.71a28.12,28.12,0,0,0-1.5-10.62c-1.27-3.29-3.62-5.93-6-8.43-2.74-2.84-5.52-5.73-9.09-7.53-.42-.22-1.78.41-1.17.71Z" class="cls-20"></path><path d="M157.14,200.24l8.4,13.52,4.2,6.75a39.18,39.18,0,0,1,3.56,6.63c.2.51,1.66.08,1.48-.39-1.79-4.69-5-8.91-7.6-13.15l-8.67-13.93c-.25-.42-1.69.06-1.37.57Z" class="cls-20"></path><path d="M30.91,246.93c-10,.91-18.72-6.34-23.77-14.3a46.28,46.28,0,0,1-6.8-23.18c-.61-17.84,7.9-34.17,20.34-46.51,3.64-3.61,7.65-6.82,11.5-10.21a109.57,109.57,0,0,1,13.07-10.37c.84-.54-.44-.74-.91-.44A98.75,98.75,0,0,0,32.67,151c-3.74,3.27-7.61,6.42-11.24,9.81a76.51,76.51,0,0,0-16.75,22.1c-7.37,15.13-8.36,34.16.31,49,5.27,9,14.72,16.82,25.72,15.82.72-.07,1.23-.91.2-.82Z" class="cls-20"></path><path d="M-22.29,204.76c2.68,9.25,7.74,17.9,13.57,25.51A61.21,61.21,0,0,0,.66,240.45a40.91,40.91,0,0,0,10.2,6.14,33.25,33.25,0,0,0,14.78,2.5c.73-.05,1.23-.88.2-.82-18.69,1.1-32.12-14.7-40.44-29.54a69.07,69.07,0,0,1-6.22-14.37c-.15-.51-1.62-.11-1.47.4Z" class="cls-20"></path><path d="M13.29,233.28c-10.38-12.65-10.8-30.82-4.88-45.54a64.17,64.17,0,0,1,14.66-21.25,104.91,104.91,0,0,1,20.82-15.91c9.36-5.43,20-7.93,30.08-11.5,1-.34.09-.84-.58-.6-9.11,3.21-18.57,5.54-27.22,9.93a91.31,91.31,0,0,0-11.93,7.52,110.13,110.13,0,0,0-10.17,8.23A68.94,68.94,0,0,0,8.19,185.07a53,53,0,0,0-5.1,23.57,40.87,40.87,0,0,0,8.83,25.22c.32.39,1.74-.13,1.37-.58Z" class="cls-20"></path><path d="M9.27,213.29c-3-13.08,2.55-26.42,11.16-36.16a84.49,84.49,0,0,1,15.34-13.21,153.78,153.78,0,0,1,17.14-10.38c7.18-3.69,14.85-6.53,22.93-7.29.72-.07,1.22-.91.2-.81C61.72,146.79,48.7,154.23,37,162.06c-11.1,7.4-21.7,16.61-26.89,29.22a37.28,37.28,0,0,0-2.26,22.4c.11.51,1.59.14,1.47-.39Z" class="cls-17"></path><path d="M78.72,151.89l-.28.06.2,0h0a1.09,1.09,0,0,0-.3.07.68.68,0,0,0-.26.12.43.43,0,0,0-.18.15.29.29,0,0,0-.1.16v.1a.26.26,0,0,0,.15.16l.14,0a.82.82,0,0,0,.35,0l.28,0-.2,0h0a.94.94,0,0,0,.3-.07,1.23,1.23,0,0,0,.26-.12.7.7,0,0,0,.19-.15.32.32,0,0,0,.09-.16v-.1a.22.22,0,0,0-.15-.16l-.13,0a1.38,1.38,0,0,0-.35,0Z" class="cls-17"></path><path d="M12.22,202.92a15.55,15.55,0,0,0,.16-1.7,12.27,12.27,0,0,1,.56-2.08,20.52,20.52,0,0,1,2.17-4.25,73.47,73.47,0,0,1,4.58-6.24,101,101,0,0,1,10.86-11.51,103.37,103.37,0,0,1,26.1-17.26A101.71,101.71,0,0,1,73.15,154c.89-.23.7-1-.19-.74A105,105,0,0,0,19.7,186.94a84.77,84.77,0,0,0-5.6,7.35,25.39,25.39,0,0,0-2.32,4.21A14.31,14.31,0,0,0,11,201c-.15.68-.05,1.49-.24,2.13s1.32.31,1.47-.19Z" class="cls-20"></path><path d="M67.27,164.41c-.53-.16-1.27.23-1.77.38-.94.28-1.88.58-2.82.89-1.8.61-3.59,1.26-5.35,2A96,96,0,0,0,36.68,179c-1.53,1.11-3,2.25-4.48,3.45-.76.62-1.52,1.26-2.26,1.91-.41.36-1.4.94-1.56,1.48s1.32.32,1.47-.18c0-.13.64-.5.8-.64l1.11-1c.7-.6,1.4-1.18,2.11-1.76,1.39-1.11,2.8-2.19,4.24-3.22a93.89,93.89,0,0,1,18.63-10.37q2.34-1,4.73-1.82c.87-.31,1.74-.6,2.61-.88l1.41-.44c.17-.05,1.26-.27.88-.38.47.14,1.73-.55.9-.8Z" class="cls-20"></path><path d="M12,149.18c-10.89,9-17.62,22-20.31,35.78A77.59,77.59,0,0,0-9.5,205.87a78.53,78.53,0,0,0,4.82,22,45,45,0,0,0,6,11c2.27,3,5.28,6.36,9,7.48.47.14,1.73-.55.9-.8-3.37-1-6.18-4.26-8.26-6.93a42.82,42.82,0,0,1-5.66-9.79,75.92,75.92,0,0,1-5.14-21.11c-1.49-13.64.58-27.94,6.75-40.27a55.62,55.62,0,0,1,14.21-18.05c.64-.53-.82-.55-1.19-.24Z" class="cls-20"></path><path d="M36.73,135.34C22.53,145,9.9,157.59,2.24,173.12a69.23,69.23,0,0,0-7.2,27,68.19,68.19,0,0,0,4.16,27,51.73,51.73,0,0,0,6.35,12.43,29.83,29.83,0,0,0,4.46,5,16.79,16.79,0,0,0,5.57,3.64c.47.14,1.73-.56.91-.81A10.55,10.55,0,0,1,14,245.94a22.13,22.13,0,0,1-2.87-2.24,29.59,29.59,0,0,1-3.85-4.3,47.76,47.76,0,0,1-5.9-10.91,68.09,68.09,0,0,1-4.94-25.87c.23-17.92,8-34.56,19.61-47.92a112.69,112.69,0,0,1,21.62-18.92c.82-.56-.45-.76-.92-.44Z" class="cls-20"></path><path d="M21.07,248.81l-.46-.09a.76.76,0,0,0-.26,0,1.35,1.35,0,0,0-.29.05,1,1,0,0,0-.28.11.74.74,0,0,0-.22.14l-.09.1a.25.25,0,0,0,0,.22l0,.09a.54.54,0,0,0,.23.11l.47.09a.7.7,0,0,0,.25,0,1,1,0,0,0,.3,0,1.28,1.28,0,0,0,.27-.11.64.64,0,0,0,.22-.14l.1-.11a.3.3,0,0,0,.05-.21l-.06-.09a.38.38,0,0,0-.23-.11Z" class="cls-17"></path><path d="M20.25,248.48c-.72.57-2,.51-2.88.59s-2.06.16-3.09.18A44.35,44.35,0,0,1,8.52,249a45.46,45.46,0,0,1-10.35-2.44,43,43,0,0,1-15.55-9.6,43.9,43.9,0,0,1-6.7-9c-.24-.41-1.68.05-1.37.58a43.7,43.7,0,0,0,6.59,8.92,39.86,39.86,0,0,0,7.1,5.58,47,47,0,0,0,20.37,6.9,45.82,45.82,0,0,0,6.93.12c2-.11,4.28,0,5.9-1.29.65-.51-.81-.53-1.19-.24Z" class="cls-20"></path><path d="M-26.75,208.93C-22.52,222.67-15.28,237-1.6,243.46a23.35,23.35,0,0,0,5.07,1.73,18.63,18.63,0,0,0,2.67.37q.63,0,1.26,0a8.63,8.63,0,0,1,1.1-.08c.27.08,1.55-.25,1.14-.69C4.82,239.67-.15,234.66-5,229.58c-.71-.73-1.43-1.46-2.13-2.21-.35-.37-1.75.17-1.37.58,4.82,5.15,9.8,10.16,14.69,15.24.71.74,1.43,1.46,2.13,2.21l1.14-.69a6.22,6.22,0,0,0-1.61,0,16.34,16.34,0,0,1-2.71-.23,21.32,21.32,0,0,1-4.82-1.47,34.18,34.18,0,0,1-8.69-5.65,49.9,49.9,0,0,1-12.26-16.68,92.81,92.81,0,0,1-4.59-12.2c-.16-.51-1.63-.1-1.48.4Z" class="cls-20"></path><path d="M25.4,240.43a4.93,4.93,0,0,1-.74-2.15l-.84.6a19.65,19.65,0,0,0,14-9.8.25.25,0,0,0-.1-.38L34,227l.1.37q3.12-5.51,6.25-11c.35-.62-.92-.38-1.14-.24-1.61,1-3.69,2.38-5.52,1a2.92,2.92,0,0,1-.83-3.16c.5-2,2.27-3.45,3.89-4.55,3.28-2.24,7.42-3.51,10.33-6.25,4.74-4.44,8.05-10.49,10.83-16.28,3-6.28,5.5-12.8,8.32-19.16,3.32-7.48,7.21-14.91,13-20.8l-1,.28h0a1.23,1.23,0,0,0,1-.28c4.77-4.77,10.68-8.61,17.39-9.85.69-.13,1.22-1,.2-.82A36.15,36.15,0,0,0,78,146.65l1-.28h0a1.25,1.25,0,0,0-1,.28C67.11,157.76,63,173.33,56.41,187A75.32,75.32,0,0,1,51,196.56c-1.71,2.53-3.68,5.41-6.22,7.17-3.76,2.62-8.43,4-11.65,7.38-1.35,1.41-2.73,3.89-1.54,5.81,1.94,3.13,6.23,1.05,8.47-.39L39,216.3q-3.14,5.49-6.25,11a.24.24,0,0,0,.09.38l3.72,1.74-.1-.38a17.71,17.71,0,0,1-12.39,9c-.27,0-.88.21-.84.6A5.38,5.38,0,0,0,24,241c.25.42,1.69-.06,1.37-.57Z" class="cls-17"></path><path d="M-32.25,226.77c3.77,10.58,13.71,18,23.33,23a49.5,49.5,0,0,0,32.79,4.42c5.34-1.19,10.62-4,13-9.12.2-.45-1.26-.3-1.48.18-2.17,4.74-7,7.19-11.91,8.24a46.76,46.76,0,0,1-15.92.37c-10.57-1.4-20.42-6.62-28.39-13.63a34,34,0,0,1-9.94-13.84c-.19-.52-1.65-.09-1.48.39Z" class="cls-20"></path><path d="M93.4,142.09c-11.79,3.57-19.71,13.79-25,24.42-5.5,11.14-9,23.36-16.51,33.44A36.68,36.68,0,0,1,37.5,212.06c-.94.41-.09.9.58.61,10-4.37,16.74-13.5,21.47-23,5.71-11.51,9.23-24.33,17.29-34.55,4.33-5.49,10-10.22,16.76-12.27.87-.26.69-1-.2-.74Z" class="cls-20"></path><path d="M35.2,218.41c22.66-9.59,30.35-35.28,42.46-54.46A69.3,69.3,0,0,1,91,148c.65-.54-.81-.55-1.18-.24-18.41,15.64-23.46,41-39.51,58.52A45.61,45.61,0,0,1,34.62,217.8c-.95.4-.08.89.58.61Z" class="cls-20"></path><path d="M36.18,223.41c17.3-8.79,27.78-25.89,37.57-41.88,3.1-5.06,6.22-10.11,9.63-15,.38-.55-1.1-.43-1.38,0-11.23,16-19.47,34.45-34.22,47.74A58.18,58.18,0,0,1,35.27,223c-.88.44.43.68.91.43Z" class="cls-20"></path><path d="M73.57,189.48c-6.63,6.73-11.52,14.7-17.22,22.17a56.92,56.92,0,0,1-9.27,9.85,35.15,35.15,0,0,1-5.71,3.79,29,29,0,0,1-3.17,1.43c-.57.22-1.15.41-1.73.59l-.78.21c-.44,0-.51.09-.23.16-.47-.14-1.73.55-.91.8a3.17,3.17,0,0,0,1.54-.27c.78-.21,1.55-.46,2.31-.74a30.25,30.25,0,0,0,4.79-2.24,41.32,41.32,0,0,0,8.48-6.53c5.46-5.42,9.57-12,14.06-18.19a93.08,93.08,0,0,1,9-10.79c.6-.61-.84-.59-1.18-.24Z" class="cls-20"></path><path d="M67.82,207A63,63,0,0,1,45,227.27q-2.36,1.24-4.82,2.28c-.73.3-1.46.59-2.2.87l-1.11.41-.92.32c-.43,0-.5.11-.2.21-.47-.14-1.73.55-.91.8.54.16,1.29-.27,1.78-.43.9-.31,1.79-.64,2.68-1,1.71-.67,3.4-1.41,5-2.23a65.43,65.43,0,0,0,9.43-5.69A64.39,64.39,0,0,0,69.19,207c.38-.55-1.1-.43-1.37,0Z" class="cls-20"></path><path d="M32.1,235.1a51.61,51.61,0,0,0,22.07-5.17c.92-.44.08-.92-.58-.6a49.25,49.25,0,0,1-20.92,4.94c-.55,0-1.56.84-.57.83Z" class="cls-20"></path><path d="M120.86,148.68a5,5,0,0,0-4,1.56,5.47,5.47,0,0,0-.35,6.38,4.6,4.6,0,0,0,.4.58,7.58,7.58,0,0,0,5.56,2.76h.42c2.63-.11,4.47-2.18,5.18-4.61" class="cls-19"></path><path d="M133.93,158.32a7.37,7.37,0,0,1,.34,1.91,5.38,5.38,0,0,1-.52,3.21c-1,1.57-3.18,1.9-5.1,1.79a8.13,8.13,0,0,1-3.62-.92,4.22,4.22,0,0,1-1-.73,4.56,4.56,0,0,1-1.14-3.62" class="cls-19"></path><path d="M125,164.31a4.56,4.56,0,0,1-2,3.46,5.82,5.82,0,0,1-6.75-.72,6.33,6.33,0,0,1-1.78-6.53A6.74,6.74,0,0,1,117,157.2" class="cls-19"></path><path d="M100.05,183.18a7.15,7.15,0,0,0-1.33,6.63c0,.11.08.22.13.33a6.27,6.27,0,0,0,2.49,2.9,6.87,6.87,0,0,0,5.55.88,4.49,4.49,0,0,0,.77-.29,6.33,6.33,0,0,0,3.22-3.66" class="cls-19"></path><path d="M116.8,189.54a5.53,5.53,0,0,1-5.92.43,4.42,4.42,0,0,1-1.17-.89,6.37,6.37,0,0,1-.09-7.92,7.16,7.16,0,0,1,.69-.77l-.69.77a10.31,10.31,0,0,1-3.45,2.73,6.35,6.35,0,0,1-6-.61l-.15-.1a6.1,6.1,0,0,1-.61-.51,9.88,9.88,0,0,1-2.91-7.5,6.25,6.25,0,0,1,.83-2.78" class="cls-19"></path><path d="M111.49,199.62a6.42,6.42,0,0,1-6,5.09,6,6,0,0,1-3.38-1.06,7.23,7.23,0,0,1-2.11-2.19,6.47,6.47,0,0,1-1-3.55,7,7,0,0,1,2.31-4.87" class="cls-19"></path><path d="M118.34,195.41a7.41,7.41,0,0,1-1.92,2.9,5.86,5.86,0,0,1-4.93,1.31,5.68,5.68,0,0,1-2.71-1.28,5.87,5.87,0,0,1-1.89-4.42" class="cls-19"></path><path d="M119.88,186.09l5.79-.81,3.32,7.41-3.54,3c-1.85,1.9-5.2,1.53-7.11-.3a4.64,4.64,0,0,1-.78-.93,6.7,6.7,0,0,1-.76-4.94l3.08-3.45-2.41-7.56-7.16,1.86-3.09-7.51" class="cls-19"></path><path d="M100,201.46a7.7,7.7,0,0,1-8.59-1.18,6.32,6.32,0,0,1-.77-.94,6.75,6.75,0,0,1-.56-6.61" class="cls-19"></path><path d="M98.72,189.81A8.5,8.5,0,0,1,93.9,193a6.07,6.07,0,0,1-3.79-.26l-.26-.14A4.46,4.46,0,0,1,88.14,191a5.33,5.33,0,0,1-.8-3.09,6.59,6.59,0,0,1,2.7-4.73" class="cls-19"></path><path d="M90.16,178.55a6.46,6.46,0,0,0-.23,4.31,2.33,2.33,0,0,0,.11.28,5.72,5.72,0,0,0,7.43,2.78A5.57,5.57,0,0,0,99,184.85a6.28,6.28,0,0,0,1.18-1.57" class="cls-19"></path><path d="M90.67,199.34a5.91,5.91,0,0,0,4,10.95c2.79-.56,4.77-3,6.5-5.25a12.39,12.39,0,0,0,.92-1.39" class="cls-19"></path><path d="M78.58,231.73A6.94,6.94,0,0,1,75,233.25a4,4,0,0,1-1.25-.14,5.29,5.29,0,0,1-3.54-5.19,4.54,4.54,0,0,1,.25-1.31,6.17,6.17,0,0,1,5.12-3.76" class="cls-19"></path><path d="M83.65,225.2a5.8,5.8,0,0,1-3.73,2.26,4.44,4.44,0,0,1-1.45-.09,3.79,3.79,0,0,1-2.91-2.7,4,4,0,0,1,0-1.82,7.21,7.21,0,0,1,.55-1.49,11.7,11.7,0,0,1,1.36-2.18" class="cls-19"></path><path d="M87.5,232.28a9.31,9.31,0,0,1-2.91,1.48l-.31.09c-1.54.44-3.3.58-4.54-.41a3.69,3.69,0,0,1-1.16-1.71,7.21,7.21,0,0,1-.33-1.9,10.2,10.2,0,0,1,.22-2.46" class="cls-19"></path><path d="M70.23,227.92c-7.15.56-5.94,12.63,1.41,10.35a6.57,6.57,0,0,0,1.74-.86" class="cls-19"></path><path d="M84.28,233.85a11.69,11.69,0,0,1-1.6,4.77c-1.48,2.27-4.65,3.71-7,2.35a5.06,5.06,0,0,1-2.29-3.56,6.67,6.67,0,0,1-.11-1.34,10.68,10.68,0,0,1,.5-3" class="cls-19"></path><path d="M105.37,123.08c-.11,1.9.44,4,2.33,4.86a6,6,0,0,0,5.85-1c.25-.19.13-.46-.14-.52a1.33,1.33,0,0,0-1,.28,3.42,3.42,0,0,1-3.83.33c-1.4-.8-1.77-2.67-1.68-4.16,0-.6-1.45-.31-1.48.19Z" class="cls-17"></path><path d="M106.06,132.43a4.26,4.26,0,0,1-2.84,1.57,2.71,2.71,0,0,1-1.1-.14,4.51,4.51,0,0,1-2.51-2.14v0" class="cls-19"></path><path d="M114.3,135.6a5.23,5.23,0,0,1-1.56,1,5,5,0,0,1-3.42.12,4.43,4.43,0,0,1-2.18-1.46,5.49,5.49,0,0,1-1.08-2.82,10.39,10.39,0,0,1,0-2.23,16,16,0,0,1,.85-3.73" class="cls-19"></path><path d="M102.12,133.86c-.51,2.21-.4,4.86,1.54,5.9,1.63.86,3.75-.06,4.84-1.55a7,7,0,0,0,.82-1.5" class="cls-19"></path><path d="M99.34,151.83a7.28,7.28,0,0,1-1.3,1.24,5.39,5.39,0,0,1-2.5,1,3.74,3.74,0,0,1-2.92-.71c-1.61-1.29-1.68-3.71-1.33-5.75.09-.47.18-.93.29-1.4h0" class="cls-19"></path><path d="M92.1,142.53l-.12.27a.14.14,0,0,0,0,.15.18.18,0,0,0,.12.12.54.54,0,0,0,.22.05h.27l.2,0a1.38,1.38,0,0,0,.36-.15l.13-.1a.51.51,0,0,0,.15-.21c0-.09.07-.19.11-.28a.16.16,0,0,0,0-.15.24.24,0,0,0-.13-.11.54.54,0,0,0-.22-.05.62.62,0,0,0-.27,0l-.2,0a1.19,1.19,0,0,0-.35.15l-.14.09a.4.4,0,0,0-.14.22Z" class="cls-17"></path><path d="M92.93,142.64a3.66,3.66,0,0,0,.1.74h0a4.85,4.85,0,0,0,2.38,3.3,4.53,4.53,0,0,0,2.48.5,5,5,0,0,0,4.19-2.72l6.28.7a10.36,10.36,0,0,1-1.93,6,6,6,0,0,1-1,1,4.74,4.74,0,0,1-4.71.75,4,4,0,0,1-1.38-1,6,6,0,0,1-1.39-3.2,9.91,9.91,0,0,1-.06-1.44" class="cls-19"></path><path d="M83.92,163.47A3.47,3.47,0,0,0,85.4,165c1.76.95,3.5.28,4.94-1" class="cls-19"></path><path d="M90.24,160.55a11.29,11.29,0,0,0,.1,3.48c.07.37.16.73.26,1.09a3.72,3.72,0,0,0,2.08,2.32,6.77,6.77,0,0,0,3.42.52,7.13,7.13,0,0,0,2.55-.72,6.53,6.53,0,0,0,2.39-2.19h0a6.53,6.53,0,0,0,1.1-3.3,10,10,0,0,1-6.2-3.8Z" class="cls-19"></path><path d="M81.59,169.37h0a5.15,5.15,0,0,0,1.58,2.29,5,5,0,0,0,2.35,1.05,5.15,5.15,0,0,0,2.85-.31c2.06-.87,3.28-2.94,4.31-5" class="cls-19"></path><path d="M103.74,171.92c-1.59,1.31-3.63,2.1-5.4,1.21l-.15-.09a3.51,3.51,0,0,1-.83-.65,5.17,5.17,0,0,1-1.3-3.36,6.35,6.35,0,0,1,0-1.07" class="cls-19"></path><path d="M96.53,175.17c-1.75,1.82-4.17,3.4-6.37,3.38a3.77,3.77,0,0,1-1.11-.16,4.69,4.69,0,0,1-2.78-2.5,6.62,6.62,0,0,1-.75-3.18" class="cls-19"></path><path d="M77.39,180.6a7.4,7.4,0,0,0,.29,1.32A4.21,4.21,0,0,0,80,184.61l.33.1a4.85,4.85,0,0,0,3.41-.72,12.6,12.6,0,0,0,5.28-5.6c.12-.25.24-.51.34-.77" class="cls-19"></path><path d="M56.69,236.81h0a5.37,5.37,0,0,1-5.21,3.08,4.9,4.9,0,0,1-4.16-5.42h0" class="cls-19"></path><path d="M49.62,231.65h0a.19.19,0,0,0,0-.15.17.17,0,0,0-.12-.11.6.6,0,0,0-.22-.06H49l-.2,0a1.94,1.94,0,0,0-.36.15l-.13.1a.48.48,0,0,0-.15.22h0a.14.14,0,0,0,0,.15.17.17,0,0,0,.12.11.55.55,0,0,0,.22.06h.27l.2,0a2.17,2.17,0,0,0,.35-.15l.14-.1a.41.41,0,0,0,.14-.21Z" class="cls-17"></path><path d="M174.16,167.6c-2.48,5.89-5.15,11.71-8.08,17.39-1.32,2.56-2.66,5.12-4.2,7.56a34.82,34.82,0,0,1-5.56,6.61c-.17.17.59,0,.71,0,4.6-3,7.15-8.88,9.59-13.61a183.65,183.65,0,0,0,8.09-18c0-.05-.5,0-.55.08Z" class="cls-18"></path><path d="M140.2,215.53a77.92,77.92,0,0,1-9.77,10.53,65,65,0,0,1-11.72,8c-.36.2.48.13.64.05A60,60,0,0,0,131.29,226a51.14,51.14,0,0,0,9.54-10.6,1,1,0,0,0-.63.09Z" class="cls-18"></path><path d="M75.35,214.23a7.07,7.07,0,0,0,2.16,5,5.66,5.66,0,0,0,1.63,1,5.38,5.38,0,0,0,4.27-.19A5.13,5.13,0,0,0,86.23,217" class="cls-19"></path><path d="M80,184.61a15.91,15.91,0,0,0-.21,4.57,4.73,4.73,0,0,0,1.35,3.27,3.76,3.76,0,0,0,3.45.53,11,11,0,0,0,3.17-1.76l.35-.26" class="cls-19"></path><path d="M69.34,205.13a5,5,0,0,0-.92,2h0a2.56,2.56,0,0,0,0,.27A5.85,5.85,0,0,0,69.52,212a6.48,6.48,0,0,0,5.83,2.2,5.33,5.33,0,0,0,.9-.19,7.48,7.48,0,0,0,4.83-4.68,3.12,3.12,0,0,0,.15-.43" class="cls-19"></path><path d="M69.18,205a7,7,0,0,0,5.16.77,6.89,6.89,0,0,0,2.71-1.37" class="cls-19"></path><path d="M84.66,208.72a3.31,3.31,0,0,1-.55.37,4.11,4.11,0,0,1-3,.27,5.25,5.25,0,0,1-2.86-1.94,6.79,6.79,0,0,1-1.17-3.06l-.33-4L84,198.75,87.16,204" class="cls-19"></path><path d="M92.24,209.76l2.61,5.49-4.77,1.8a2.33,2.33,0,0,1-2.92.6,3.25,3.25,0,0,1-.93-.67,6.15,6.15,0,0,1-1.17-1.76,11.33,11.33,0,0,1-1-6.13l5-1.57" class="cls-19"></path><path d="M83.41,220a17.75,17.75,0,0,0,0,3.57,7.16,7.16,0,0,0,.29,1.6,3.61,3.61,0,0,0,.83,1.54,2.49,2.49,0,0,0,2.22.77,1.68,1.68,0,0,0,.82-.41" class="cls-19"></path><path d="M91.64,234.14c-1.46.81-3.31-.4-4.14-1.86a7.14,7.14,0,0,1-.8-4.77l6.37-2.13,3.12,5.21S95.32,235.91,91.64,234.14Z" class="cls-19"></path><path d="M65.3,235.35C63,237.5,56.67,237.9,55,235.18s-1-7.46,2-8.55l5.55.65,2.73,5.09" class="cls-19"></path><path d="M101,165h0a12.33,12.33,0,0,0,.21,2.91,6.19,6.19,0,0,0,2.49,4,3.83,3.83,0,0,0,.44.25,3.64,3.64,0,0,0,4.68-1.17l3.42-2.14-2.69-8.07-7.45,1" class="cls-19"></path><path d="M105.43,152.11a7.84,7.84,0,0,1-1.21,3.51,5.49,5.49,0,0,1-5.68,2.46,4.14,4.14,0,0,1-3-4" class="cls-19"></path><path d="M139.42,200.3a.7.7,0,0,0-.14,0c-2.12.5-3.39,2.72-4.17,4.77a9.79,9.79,0,0,0-.83,4.07,4.74,4.74,0,0,0,.61,2.08,3.36,3.36,0,0,0,1.41,1.36,2.58,2.58,0,0,0,1.18.27,3.49,3.49,0,0,0,2.65-1.33" class="cls-19"></path><path d="M134.89,211.25a5.71,5.71,0,0,1-2.56,1.64,4.71,4.71,0,0,1-3.52-.46,4.57,4.57,0,0,1-1.73-1.65,5,5,0,0,1-.26-.52,4.8,4.8,0,0,1,1-5.1L133,203.3l1.16,4.62" class="cls-19"></path><path d="M137.48,212.88a8.63,8.63,0,0,1-2.48,4.25,4.9,4.9,0,0,1-4,1.07" class="cls-19"></path><path d="M131.71,213a25.85,25.85,0,0,1-.67,5.19,5,5,0,0,1-1.15,2.15c-1.38,1.49-4.08,1.77-5.38.21a4.4,4.4,0,0,1-.87-2,8.72,8.72,0,0,1,3.18-8.27" class="cls-19"></path><path d="M79.05,146.37a1,1,0,0,0-.35,0,2.33,2.33,0,0,1-1.84-.54,7.45,7.45,0,0,1-1.51-2.45,11.81,11.81,0,0,1-.88-5.57c0-.41-.6-.33-.84-.28A188.17,188.17,0,0,1,51.24,141c-1.82.18-7.9,2.05-8.4-.74a3.8,3.8,0,0,1,1-2.5c.4-.58,1.53-2.22,2.36-2.22.53,0,1.59-.77.57-.84a41.64,41.64,0,0,0-36.31,16.83l1.37-.27Q9.4,147.24,7,143.17c-.24-.39-1.35,0-1.43.38-1.82,9.06-11.1,13.65-17.2,19.58-6.72,6.52-9.68,15.78-10.81,24.88a61.71,61.71,0,0,0,.23,16.79l1.33-.55-3.22-1.54c-.37-.17-1.19,0-1.32.45a43.43,43.43,0,0,0,0,25.27l1.19-.6c-3-.78-6-1.46-9-2.17-.47-.11-1.73.6-.9.8,3,.71,6,1.4,9,2.17.28.07,1.33-.13,1.19-.6A43,43,0,0,1-23.95,203l-1.32.45c1.07.51,2.15,1,3.22,1.53.33.16,1.4,0,1.32-.55a59,59,0,0,1,2.91-29.57,31.25,31.25,0,0,1,7.69-11.77c3.27-3.12,7-5.71,10.32-8.79s6-6.51,6.86-10.91l-1.42.38q2.4,4.06,4.79,8.13c.24.4,1.18,0,1.37-.28a39.29,39.29,0,0,1,34.37-16l.57-.84c-2.24,0-4.2,2.44-5,4.3-1.51,3.32,2.68,3.67,5,3.43,2-.2,3.88-.55,5.83-.75q3.63-.37,7.25-.89,7.09-1,14.09-2.57L73,138a12.23,12.23,0,0,0,1.35,6.74,5.65,5.65,0,0,0,1.51,2,2.68,2.68,0,0,0,1.21.49,10.18,10.18,0,0,1,1.09,0c.47.14,1.73-.55.9-.8Z" class="cls-17"></path><path d="M167.35,266c4.72-5.77,5.82-13,5.32-20.25-.28-4-.86-8.07-.37-12.09.2-1.72,1.12-3.06,1.81-4.6a12.1,12.1,0,0,0,1-4.62c.2-6.87-4.25-12.8-8.91-17.38-5.12-5-10.92-9.65-13.52-16.59a28,28,0,0,1,1.43-22.37c.34-.67-1.25-.5-1.49,0A29.09,29.09,0,0,0,150,186.85c1.41,7,5.69,12.14,10.72,16.91,5.21,5,10.9,10,12.5,17.34a13.81,13.81,0,0,1-1.52,9.75c-1.6,3.11-1.24,6.94-1,10.33.32,4.52.95,9.07.16,13.57a24.2,24.2,0,0,1-5,11.16c-.44.54,1.15.44,1.48,0Z" class="cls-17"></path><path d="M173.72,190.1c3.71,10.39,14.6,15.55,25.14,15a40.21,40.21,0,0,0,27.08-13.06,41.18,41.18,0,0,0,8.57-14.1l-1.59.31a15.9,15.9,0,0,1-2.17,17.77,14,14,0,0,1-4.07,3.11,11.2,11.2,0,0,0-3.92,2.77c-2.19,2.82-1.68,6.8-5.21,8.64-1.45.76-3.05,1.19-4.45,2.06a9.44,9.44,0,0,0-3.17,3.44,30.18,30.18,0,0,1-2.63,4.46,18,18,0,0,1-4.21,3.67c-3.11,2-7,3.47-10.76,2.84s-6.69-3-9.3-5.41a105.79,105.79,0,0,1-8.35-8.72c-3.05-3.57-5.52-7.55-6.24-12.26-.08-.54-1.68-.17-1.59.42,1.26,8.27,7.89,14.52,13.59,20.12,2.6,2.55,5.51,5.06,9,6.23a15.33,15.33,0,0,0,10.13-.5,21.79,21.79,0,0,0,8.84-5.95,27.27,27.27,0,0,0,3-4.87,8.61,8.61,0,0,1,4.38-3.84,16.08,16.08,0,0,0,4.34-2.28,9,9,0,0,0,2.44-4.22c.68-2.06,1.3-3.94,3.26-5.13a39.69,39.69,0,0,0,4.51-2.72c5.78-4.66,7.76-13.5,4.17-20.06-.28-.52-1.42-.16-1.59.32a40.42,40.42,0,0,1-17.32,21c-8.89,5.28-20.68,7.25-30.09,2.15a21.86,21.86,0,0,1-10.2-11.65c-.2-.55-1.78-.09-1.59.43Z" class="cls-17"></path><path d="M115.48,284c-4.15,3.82-9.8,5.68-15.22,6.82a74.4,74.4,0,0,1-8.91,1.29c-.45,0-.94.18-1.38.21-.2,0-1.35,0-1.8,0-1.45.07-2.89.11-4.34.12-5.11,0-10.25-.24-15-2.37s-8.86-5.86-12.46-9.73c-4.28-4.61-8.16-9.59-12.89-13.76-.28-.25-1.25-.1-1.3.35a17.45,17.45,0,0,0,.91,9.25c.58,1.32,1.48,2.45,2.06,3.76s.92,2.69,1.51,4c1.15,2.55,3.61,4,4.9,6.41,1.2,2.27,1.56,4.88,2.9,7.11,2.57,4.28,7.2,6.51,11.93,7.54a52.88,52.88,0,0,0,18.65.27,61.45,61.45,0,0,0,20.06-6.7c.79-.43-.4-.64-.84-.4a58.54,58.54,0,0,1-17.7,6.14,53.13,53.13,0,0,1-18.44.14c-4.66-.88-9.3-2.85-12-6.92-1.44-2.15-1.87-4.66-2.92-7s-3-3.54-4.37-5.51a16.56,16.56,0,0,1-1.74-4,20.5,20.5,0,0,0-1.87-3.75c-1.92-3.18-2.12-6.89-1.66-10.49l-1.3.35c8.68,7.66,14.73,18.56,25.53,23.61,4.64,2.17,9.82,2.47,14.87,2.49,1.51,0,3,0,4.52-.1,1.2-.06,2.4-.24,3.56-.36-.25,0,.52.09.67.07l1.19-.11c.8-.08,1.6-.18,2.4-.28,1.51-.21,3-.45,4.5-.75,6.06-1.21,12.43-3.19,17.07-7.47.57-.53-.75-.52-1.08-.22Z" class="cls-17"></path><path d="M63.22,172a169.28,169.28,0,0,1-18.11,7.06c-3,1.06-6.09,2.14-9.1,3.32-1.57.61-3.13,1.25-4.68,1.94-.7.31-1.4.62-2.09,1-.25.12-.77.28-.86.6l.64-.46a21.15,21.15,0,0,0-4.95,2.72,40.73,40.73,0,0,0-4.81,3.67,36.14,36.14,0,0,0-7.34,9,32.56,32.56,0,0,0-2.83,25.64c1.2,3.91,3,7.76,6.09,10.53a17.18,17.18,0,0,0,8.92,4.08c8.24,1.26,16.85-2,23.67-6.39a87,87,0,0,0,9.88-7.58,30.36,30.36,0,0,0,7.68-10.19c4.2-9,6.48-18.77,9.81-28.1,6.54-18.33,13.24-36.75,23.06-53.63a75.67,75.67,0,0,1,8-11.52,85,85,0,0,1,10.73-10.31,114.08,114.08,0,0,1,25.24-15.54A67.08,67.08,0,0,1,149.28,95c.86-.27.68-1-.2-.74-8.84,2.81-17.28,7.56-25,12.71a92.86,92.86,0,0,0-20.6,18.25C98,132,93.85,140.08,90.05,148c-4.16,8.61-7.73,17.48-11.08,26.42-3.42,9.14-6.64,18.33-9.57,27.65a134.91,134.91,0,0,1-4.78,13.39,34.63,34.63,0,0,1-3.33,6.28,31.71,31.71,0,0,1-4.66,5c-6.51,5.81-13.78,11-22.41,13-7.63,1.76-15.81.28-20.42-6.53a30,30,0,0,1-4.47-13,31.67,31.67,0,0,1,1.51-14A35.35,35.35,0,0,1,26,187.93q1.2-.74,2.46-1.38c.3-.15,1.27-.46,1.39-.87l-.44.4c11.14-5.3,23.29-8.09,34.39-13.47.92-.45.08-.93-.58-.61Z" class="cls-17"></path><path d="M209.11,220.44c1.91-.21,3.74.43,5.62.58a8.89,8.89,0,0,0,4.2-.71,8.44,8.44,0,0,0,5.09-6.5c.09-.7,0-1.55.55-2s1.52-.44,2.19-.73a6.53,6.53,0,0,0,3.06-2.88c1.7-3.15.77-6.63-.53-9.73-.24-.55-1.8-.07-1.6.43,1.25,2.95,2.27,6.42.57,9.41a5.72,5.72,0,0,1-1.41,1.68,5.36,5.36,0,0,1-2.29.79,2.38,2.38,0,0,0-2,1.85c-.33,1.42-.26,2.71-1,4a7.32,7.32,0,0,1-2.88,2.83c-2.95,1.56-6.23-.26-9.36.09-.77.09-1.32,1-.22.88Z" class="cls-17"></path></g></g></g><circle r="130" cy="140" cx="140" class="cls-21"></circle></svg>