<?xml version="1.0" standalone="no"?><!DOCTYPE svg PUBLIC "-//W3C//DTD SVG 1.1//EN" "http://www.w3.org/Graphics/SVG/1.1/DTD/svg11.dtd"><svg t="1635906388288" class="icon" viewBox="0 0 1024 1024" version="1.1" xmlns="http://www.w3.org/2000/svg" p-id="7841" xmlns:xlink="http://www.w3.org/1999/xlink" width="200" height="200"><defs><style type="text/css"></style></defs><path d="M913.532 200.564h-44.123c13.881-21.109 22.759-42.618 26.071-63.597 5.679-35.964-5.422-68.364-31.254-91.232-21.84-19.334-50.074-29.555-81.649-29.555-76.32 0-154.199 57.070-193.83 91.089-22.528 19.338-51.511 46.175-75.999 75.167-24.545-29.117-53.662-56.084-76.275-75.495-39.631-34.018-117.51-91.088-193.83-91.088-31.574 0-59.808 10.22-81.649 29.554-25.834 22.868-36.931 55.267-31.253 91.232 3.33 21.089 12.283 42.713 26.287 63.926h-48.275c-58.076 0-105.322 47.188-105.322 105.191v78.366c0 48.98 33.693 90.25 79.148 101.901-3.267 9.659-4.994 19.839-4.994 30.169v385.582c0 26.795 11.567 52.612 31.732 70.829 18.466 16.681 42.543 25.868 67.795 25.868h671.389c25.252 0 49.328-9.186 67.795-25.867 20.167-18.217 31.733-44.033 31.733-70.83v-385.582c0-10.533-1.795-20.913-5.189-30.741 44.37-12.38 77.017-53.115 77.017-101.326v-78.366c0-58.003-47.248-105.191-105.323-105.191zM782.576 88.366c14.066 0 25.122 3.735 33.803 11.419 4.858 4.3 10.134 11.133 7.798 25.923-3.365 21.307-20.858 48.908-50.485 74.854h-179.662c11.658-11.697 25.429-24.523 41.734-38.519 53.745-46.132 108.627-73.677 146.812-73.677zM201.040 125.378c-2.336-14.791 2.941-21.623 7.798-25.923 8.681-7.683 19.735-11.419 33.803-11.419 38.183 0 93.068 27.542 146.812 73.677 16.459 14.13 30.335 27.063 42.063 38.849h-179.609c-29.856-26.043-47.487-53.788-50.865-75.184zM476.679 928.247h-300.572c-16.189 0-29.311-11.854-29.311-26.478v-385.582c0-14.624 13.123-26.478 29.311-26.478h300.572v438.539zM476.679 417.122h-368.932c-18.3 0-33.136-14.777-33.136-33.005v-78.366c0-18.228 14.835-33.005 33.136-33.005h368.932v144.373zM876.812 901.769c0 14.626-13.123 26.478-29.313 26.478h-300.182v-438.539h300.182c16.189 0 29.313 11.856 29.313 26.478v385.582zM946.669 384.118c0 18.228-14.835 33.005-33.137 33.005h-366.215v-144.372h366.215c18.301 0 33.137 14.777 33.137 33.005v78.365z" p-id="7842" fill="#bfbfbf"></path></svg>