<?xml version="1.0" standalone="no"?><!DOCTYPE svg PUBLIC "-//W3C//DTD SVG 1.1//EN" "http://www.w3.org/Graphics/SVG/1.1/DTD/svg11.dtd"><svg t="1635906726612" class="icon" viewBox="0 0 1024 1024" version="1.1" xmlns="http://www.w3.org/2000/svg" p-id="8432" xmlns:xlink="http://www.w3.org/1999/xlink" width="200" height="200"><defs><style type="text/css"></style></defs><path d="M875.7819 1023.296484H148.2181c-63.95603 0-115.888327-54.682406-115.888327-121.900194V481.652864c0-67.217788 51.996253-121.900194 115.888327-121.900194h727.499844c63.892074 0 115.888327 54.682406 115.888327 121.900194v419.67947C991.670227 968.614078 939.673974 1023.296484 875.7819 1023.296484zM148.2181 423.7087c-28.652302 0-51.932297 26.030104-51.932296 57.944164v419.67947c0 32.041971 23.279995 58.008119 51.932296 58.008119h727.499844c28.652302 0 51.932297-25.966148 51.932296-57.944163V481.652864c0-31.978015-23.279995-57.944163-51.932296-57.944164H148.2181z" p-id="8433" fill="#bfbfbf"></path><path d="M749.340828 389.2364a31.978015 31.978015 0 0 1-31.978015-31.978015V264.650053C716.019736 169.931172 631.341952 63.95603 512 63.95603 398.73387 63.95603 306.637187 165.965898 306.637187 291.383674v61.269877a31.978015 31.978015 0 0 1-63.95603 0v-61.269877C242.681157 130.66217 363.494098 0 512 0c141.534695 0 267.400162 123.435138 269.318843 264.202361v93.056024a31.978015 31.978015 0 0 1-31.978015 31.978015zM512 836.225095c-79.369434 0-143.901068-64.595591-143.901068-143.901068S432.630566 548.422959 512 548.422959c79.305477 0 143.901068 64.595591 143.901068 143.901068s-64.595591 143.901068-143.901068 143.901068z m0-223.846106c-44.065705 0-79.945038 35.879333-79.945038 79.945038s35.879333 79.945038 79.945038 79.945038 79.945038-35.879333 79.945038-79.945038-35.879333-79.945038-79.945038-79.945038z" p-id="8434" fill="#bfbfbf"></path></svg>