<?xml version="1.0" standalone="no"?><!DOCTYPE svg PUBLIC "-//W3C//DTD SVG 1.1//EN" "http://www.w3.org/Graphics/SVG/1.1/DTD/svg11.dtd"><svg t="1635906999078" class="icon" viewBox="0 0 1024 1024" version="1.1" xmlns="http://www.w3.org/2000/svg" p-id="11291" xmlns:xlink="http://www.w3.org/1999/xlink" width="200" height="200"><defs><style type="text/css"></style></defs><path d="M927.5 492.5c0-3.6-0.2-7.2-0.6-10.7-2.2-49.5-13-97.6-32.3-143.1-20.9-49.4-50.9-93.9-89-132-38.1-38.1-82.5-68.1-132-89C622.4 96 568 85 511.9 85c-56.1 0-110.5 11-161.7 32.7-49.4 20.9-93.9 50.9-132 89-38.1 38.1-68.1 82.5-89 132-19.8 46.6-30.6 95.9-32.4 146.7-0.2 2.3-0.3 4.7-0.3 7.1v83.1c0 51.8 42.2 94 94 94 25.1 0 48.7-9.8 66.6-27.7 17.7-17.8 27.5-41.4 27.4-66.3v-83.1c0-51.8-42.2-94-94-94-10.9 0-21.4 1.9-31.2 5.3 16.5-60.6 48.5-116.2 94.2-161.8 69-69 160.8-107 258.4-107s189.4 38 258.4 107c45.6 45.6 77.6 101.1 94.1 161.7-9.7-3.4-20.1-5.2-30.9-5.2-51.8 0-94 42.2-94 94v83.1c0 51.8 42.2 94 94 94 10.5 0 20.6-1.7 30-4.9-14.2 40-39.2 72.9-75.5 99.4-49.9 36.3-121 61.1-216.9 75.4-11.5-20.8-33.7-34.9-59.2-34.9-37.4 0-67.7 30.3-67.7 67.7s30.3 67.7 67.7 67.7c31.6 0 58.1-21.6 65.6-50.8 104.5-15.5 183.3-43.3 239.9-84.7 72.6-53 109.5-129.2 110.1-226.7v-85.3z m-737-44c24.3 0 44 19.7 44 44v83.2c0.1 11.6-4.5 22.6-12.8 30.9-8.4 8.4-19.5 13-31.2 13-24.3 0-44-19.7-44-44v-75.2c0-4.2 0.1-8.3 0.2-12.4 2.3-22.2 21-39.5 43.8-39.5z m599 127.1v-83.1c0-24.3 19.7-44 44-44 22 0 40.2 16.2 43.5 37.3 0.2 4.9 0.3 9.7 0.3 14.6 0 1.1 0.1 2.1 0.2 3.1V562c-0.1 1-0.1 2-0.1 3 0.1 1.8 0.1 3.6 0.1 5.4v5.2c0 24.3-19.7 44-44 44s-44-19.7-44-44z" p-id="11292" fill="#bfbfbf"></path></svg>