<?xml version="1.0" standalone="no"?><!DOCTYPE svg PUBLIC "-//W3C//DTD SVG 1.1//EN" "http://www.w3.org/Graphics/SVG/1.1/DTD/svg11.dtd"><svg t="1635845086369" class="icon" viewBox="0 0 1024 1024" version="1.1" xmlns="http://www.w3.org/2000/svg" p-id="14135" xmlns:xlink="http://www.w3.org/1999/xlink" width="200" height="200"><defs><style type="text/css"></style></defs><path d="M757.8624 953.4976H271.616c-107.264 0-194.2016-86.9376-194.2016-194.2016V272.9984c0-107.264 86.9376-194.2016 194.2016-194.2016h486.2464c107.264 0 194.2016 86.9376 194.2016 194.2016v486.2464c0 107.264-86.9376 194.2528-194.2016 194.2528z" fill="#F78748" p-id="14136"></path><path d="M786.8416 757.0432H429.5168c-46.4896 0-85.4016-33.3312-92.5696-79.2576L276.4288 290.56a30.65344 30.65344 0 0 0-30.464-26.0608h-22.3232c-14.1312 0-25.6-11.4688-25.6-25.6s11.4688-25.6 25.6-25.6h22.3232c40.6528 0 74.752 29.184 81.0496 69.3248l60.4672 387.2256a42.24 42.24 0 0 0 41.984 35.9424h357.3248c14.1312 0 25.6 11.4688 25.6 25.6s-11.4176 25.6512-25.5488 25.6512z" fill="#FFFFFF" p-id="14137"></path><path d="M454.1952 639.7952c-13.4144 0-24.6784-10.4448-25.5488-24.0128a25.56928 25.56928 0 0 1 23.9616-27.136l288.8704-18.1248a18.69312 18.69312 0 0 0 17.3056-15.5648l33.2288-195.4304c1.28-7.4752-2.048-12.7488-4.1472-15.2576-2.0992-2.5088-6.7584-6.656-14.336-6.656h-361.472c-14.1312 0-25.6-11.4688-25.6-25.6s11.4688-25.6 25.6-25.6h361.472c20.6336 0 40.1408 9.0624 53.4528 24.832 13.312 15.7696 18.9952 36.5056 15.5136 56.832l-33.2288 195.4304a69.65248 69.65248 0 0 1-64.5632 58.0608l-288.8704 18.1248c-0.5632 0.1024-1.1264 0.1024-1.6384 0.1024z" fill="#FFFFFF" p-id="14138"></path><path d="M407.3472 821.8624m-34.9184 0a34.9184 34.9184 0 1 0 69.8368 0 34.9184 34.9184 0 1 0-69.8368 0Z" fill="#FFFFFF" p-id="14139"></path><path d="M738.1504 821.8624m-34.9184 0a34.9184 34.9184 0 1 0 69.8368 0 34.9184 34.9184 0 1 0-69.8368 0Z" fill="#FFFFFF" p-id="14140"></path></svg>